<svg width="190" height="82" viewBox="0 0 190 82" fill="none" xmlns="http://www.w3.org/2000/svg">
<path d="M44.7165 25.6482C45.9534 25.0666 45.9949 25.8442 45.8611 26.3057C45.5398 27.4132 44.2688 28.8808 43.6735 29.4762C41.0756 32.074 39.825 32.0141 39.5244 31.6594C39.3877 31.4685 39.5053 31.0233 40.7422 30.4417C41.8005 30.0386 42.5355 30.2865 44.2556 32.0066C45.0476 32.8528 47.2877 35.3635 48.1974 38.2216C48.447 39.3371 48.3735 41.158 47.2217 38.8696" stroke="black" stroke-linecap="round"/>
<path d="M45.4873 33.7152C46.4333 33.3938 47.2692 32.9237 47.7751 32.032C48.0167 31.6062 48.2001 31.1547 48.3168 30.6791" stroke="black" stroke-linecap="round"/>
<path d="M56.4389 36.7955C57.5466 37.5691 56.8934 38.0031 56.4283 38.1233C55.3122 38.4119 53.4206 38.0622 52.6143 37.8512C49.0959 36.9307 48.5373 35.8169 48.6977 35.375C48.7963 35.1589 49.2394 35.0329 50.347 35.8065C51.2127 36.5169 51.3568 37.2803 50.7068 39.6504C50.3606 40.7694 49.2798 43.9945 47.2485 46.2451C46.4041 47.0322 44.7913 47.9005 46.2109 45.7318" stroke="black" stroke-linecap="round"/>
<path d="M49.8286 41.592C50.5689 42.2469 51.3842 42.7302 52.4035 42.712C52.8902 42.7034 53.3708 42.6311 53.8396 42.4889" stroke="black" stroke-linecap="round"/>
<path d="M52.1648 52.151C52.0355 53.5062 51.3408 53.1625 51.0096 52.8213C50.2147 52.0023 49.5941 50.185 49.3832 49.3787C48.4627 45.8604 49.1546 44.8065 49.6157 44.7193C49.851 44.694 50.1764 45.0133 50.0472 46.3685C49.8546 47.4819 49.2637 47.9974 46.8936 48.6474C45.7554 48.9203 42.4345 49.6347 39.4935 49.0272C38.3995 48.6988 36.8601 47.7462 39.4316 47.8658" stroke="black" stroke-linecap="round"/>
<path d="M44.7832 48.8808C44.5775 49.8571 44.5568 50.8106 45.0702 51.6841C45.3154 52.1012 45.6126 52.4805 45.9647 52.8138" stroke="black" stroke-linecap="round"/>
<path d="M36.7217 56.9131C35.4848 57.4947 35.4433 56.7171 35.5771 56.2556C35.8984 55.148 37.1694 53.6805 37.7647 53.0851C40.3626 50.4872 41.6132 50.5472 41.9138 50.9019C42.0506 51.0928 41.9329 51.538 40.696 52.1196C39.6378 52.5226 38.9028 52.2747 37.1827 50.5546C36.3906 49.7085 34.1506 47.1978 33.2409 44.3397C32.9913 43.2241 33.0647 41.4033 34.2165 43.6917" stroke="black" stroke-linecap="round"/>
<path d="M35.9507 48.8463C35.0047 49.1677 34.1688 49.6378 33.6629 50.5295C33.4213 50.9554 33.2379 51.4068 33.1211 51.8824" stroke="black" stroke-linecap="round"/>
<path d="M28.8108 30.3483C28.9401 28.993 29.6348 29.3367 29.966 29.678C30.7609 30.4969 31.3815 32.3143 31.5924 33.1206C32.5129 36.6389 31.8209 37.6928 31.3599 37.78C31.1246 37.8052 30.7991 37.486 30.9284 36.1307C31.121 35.0174 31.7119 34.5018 34.082 33.8518C35.2202 33.579 38.5411 32.8646 41.4821 33.472C42.576 33.8005 44.1155 34.7531 41.544 34.6334" stroke="black" stroke-linecap="round"/>
<path d="M36.1921 33.6187C36.3979 32.6424 36.4185 31.6889 35.9051 30.8154C35.6599 30.3983 35.3628 30.019 35.0106 29.6857" stroke="black" stroke-linecap="round"/>
<path d="M25.0901 46.2577C23.9825 45.4841 24.6357 45.0502 25.1007 44.9299C26.2169 44.6413 28.1085 44.9911 28.9148 45.202C32.4331 46.1225 32.9918 47.2363 32.8313 47.6782C32.7328 47.8943 32.2897 48.0203 31.1821 47.2467C30.3164 46.5364 30.1722 45.7729 30.8222 43.4028C31.1684 42.2838 32.2493 39.0587 34.2806 36.8081C35.1249 36.021 36.7378 35.1527 35.3182 37.3215" stroke="black" stroke-linecap="round"/>
<path d="M31.7004 41.4613C30.9602 40.8065 30.1449 40.3231 29.1256 40.3413C28.6388 40.35 28.1583 40.4222 27.6894 40.5645" stroke="black" stroke-linecap="round"/>
<path d="M40.8631 20.0825C44.2203 18.5721 53.1585 16.6519 62.0538 21.054C63.1467 24.3935 64.5948 32.9183 61.6439 40.3017M40.8631 20.0825C28.3369 24.6303 22.6363 34.431 19.8015 41.1442M40.8631 20.0825C32.6236 17.6841 24.2288 18.9871 21.0614 19.9384C19.2626 24.6921 17.6118 35.023 19.8015 41.1442M40.8631 20.0825C46.0633 20.9768 57.4998 26.2727 61.6439 40.3017M61.6439 40.3017C60.4941 45.3299 54.7827 56.6926 41.1363 61.9174M61.6439 40.3017C62.9215 43.8259 64.7376 52.9433 61.7806 61.2192C59.2595 62.8168 51.6011 65.1931 41.1363 61.9174M41.1363 61.9174C37.7816 63.0558 29.0132 64.6216 20.7767 61.777C19.0273 59.2787 17.1944 55.3864 19.8015 41.1442M41.1363 61.9174C27.7722 58.4382 21.9949 46.7075 19.8015 41.1442" stroke="black" stroke-linecap="round"/>
<path d="M31.1105 18.7542C33.3545 16.8795 38.5697 12.8463 41.4781 11.7108C43.4249 12.5343 47.8148 15.0147 49.8003 18.3481M63.3784 31.3646C65.0431 32.6549 68.7558 36.2926 70.2889 40.5217C69.9082 41.8258 68.0234 45.5574 63.5303 50.0506M49.493 63.5338C48.9301 64.2814 46.4601 66.5667 41.0835 69.7271C39.3189 69.4602 34.9601 67.8721 31.6418 63.6552M18.6215 50.635C17.1441 49.1575 13.695 45.0345 11.7186 40.3622C12.0981 39.244 13.9796 35.9958 18.4697 31.9489" stroke="black" stroke-linecap="round"/>
<path d="M82.5859 31.9062C82.5859 31.75 82.6315 31.6393 82.7227 31.5742C82.8138 31.5091 82.9245 31.4635 83.0547 31.4375C83.1849 31.4115 83.3216 31.3984 83.4648 31.3984C83.6081 31.3984 83.7318 31.3919 83.8359 31.3789V33.4492C84.7865 33.1628 85.5742 32.9089 86.1992 32.6875C86.8242 32.4531 87.3906 32.2513 87.8984 32.082C88.4062 31.8997 88.901 31.737 89.3828 31.5938C89.8646 31.4375 90.4375 31.2878 91.1016 31.1445C91.2057 31.1445 91.2773 31.1966 91.3164 31.3008C91.3555 31.4049 91.375 31.4961 91.375 31.5742C91.375 31.7435 91.2839 31.8802 91.1016 31.9844L83.9141 34.6211L84.2461 40.9492C85.3138 40.3503 86.2122 39.8424 86.9414 39.4258C87.6836 39.0091 88.2956 38.6641 88.7773 38.3906C89.2591 38.1172 89.6302 37.9089 89.8906 37.7656C90.1641 37.6224 90.3659 37.5182 90.4961 37.4531C90.6263 37.388 90.7044 37.349 90.7305 37.3359C90.7565 37.3229 90.776 37.3164 90.7891 37.3164C90.9062 37.2773 90.9844 37.2839 91.0234 37.3359C91.0625 37.375 91.082 37.4401 91.082 37.5312C91.082 37.6224 91.0625 37.7266 91.0234 37.8438C90.9974 37.9609 90.9648 38.0716 90.9258 38.1758C90.8607 38.2669 90.6458 38.4232 90.2812 38.6445C89.9297 38.8659 89.5065 39.1198 89.0117 39.4062C88.5169 39.6927 87.9896 39.9987 87.4297 40.3242C86.8828 40.6367 86.3685 40.9297 85.8867 41.2031C85.418 41.4766 85.0273 41.7174 84.7148 41.9258C84.4023 42.1341 84.2461 42.2708 84.2461 42.3359L84.3047 47.4336C84.3047 47.6159 84.2721 47.7591 84.207 47.8633C84.1419 47.9674 84.0378 48.0195 83.8945 48.0195C83.7383 48.0195 83.5951 47.8177 83.4648 47.4141C83.3477 46.9974 83.2435 46.4505 83.1523 45.7734C83.0612 45.0833 82.9831 44.2956 82.918 43.4102C82.8529 42.5117 82.8008 41.5872 82.7617 40.6367C82.7227 39.6862 82.6901 38.7422 82.6641 37.8047C82.638 36.8542 82.6185 35.9818 82.6055 35.1875C82.5924 34.3932 82.5859 33.7031 82.5859 33.1172C82.5859 32.5312 82.5859 32.1276 82.5859 31.9062ZM93.3867 47.9219C92.8659 47.8568 92.4362 47.6484 92.0977 47.2969C91.7721 46.9453 91.5117 46.5156 91.3164 46.0078C91.1211 45.5 90.9909 44.9466 90.9258 44.3477C90.8737 43.7357 90.8607 43.1367 90.8867 42.5508C90.9258 41.6523 91.0885 40.793 91.375 39.9727C91.6745 39.1523 92.0391 38.4427 92.4688 37.8438C92.9115 37.2318 93.3932 36.763 93.9141 36.4375C94.4479 36.099 94.9688 35.9688 95.4766 36.0469C96.0104 36.125 96.4401 36.3789 96.7656 36.8086C97.1042 37.2383 97.3646 37.7656 97.5469 38.3906C97.7292 39.0156 97.8398 39.6992 97.8789 40.4414C97.918 41.1706 97.9115 41.8737 97.8594 42.5508C97.7943 43.319 97.625 44.0352 97.3516 44.6992C97.0781 45.3633 96.7331 45.9362 96.3164 46.418C95.9128 46.8997 95.4505 47.2773 94.9297 47.5508C94.4219 47.8112 93.9076 47.9349 93.3867 47.9219ZM95.2812 37.1602C94.8516 37.1081 94.4479 37.2448 94.0703 37.5703C93.7057 37.8828 93.3737 38.306 93.0742 38.8398C92.7878 39.3607 92.5469 39.9596 92.3516 40.6367C92.1562 41.3008 92.026 41.9583 91.9609 42.6094C91.9089 43.0781 91.8893 43.5599 91.9023 44.0547C91.9154 44.5495 91.974 44.9987 92.0781 45.4023C92.1953 45.806 92.3711 46.138 92.6055 46.3984C92.8529 46.6458 93.1784 46.7695 93.582 46.7695C93.9076 46.7826 94.2461 46.6719 94.5977 46.4375C94.9622 46.2031 95.3008 45.8906 95.6133 45.5C95.9258 45.0964 96.1992 44.6406 96.4336 44.1328C96.681 43.625 96.8438 43.1042 96.9219 42.5703C97.013 42.0104 97.0326 41.4375 96.9805 40.8516C96.9414 40.2526 96.8438 39.6992 96.6875 39.1914C96.5443 38.6836 96.349 38.2474 96.1016 37.8828C95.8672 37.5052 95.5938 37.2643 95.2812 37.1602ZM98.7969 47.6289C98.7578 45.832 98.7253 44.3086 98.6992 43.0586C98.6732 41.8086 98.6536 40.7734 98.6406 39.9531C98.6276 39.1328 98.6146 38.4948 98.6016 38.0391C98.6016 37.5703 98.5951 37.2253 98.582 37.0039C98.582 36.7826 98.582 36.6523 98.582 36.6133C98.582 36.5612 98.582 36.5286 98.582 36.5156C98.5951 36.3984 98.6536 36.3008 98.7578 36.2227C98.862 36.1445 98.9727 36.099 99.0898 36.0859C99.2201 36.0599 99.3438 36.0729 99.4609 36.125C99.5781 36.1771 99.6628 36.2617 99.7148 36.3789L99.7734 40.8711C99.9688 39.9727 100.281 39.224 100.711 38.625C101.154 38.026 101.648 37.5573 102.195 37.2188C102.742 36.8672 103.309 36.6393 103.895 36.5352C104.493 36.431 105.047 36.4245 105.555 36.5156C105.724 36.5547 105.848 36.6263 105.926 36.7305C106.017 36.8346 106.062 36.9518 106.062 37.082C106.076 37.1992 106.043 37.3164 105.965 37.4336C105.9 37.5378 105.809 37.6159 105.691 37.668C105.105 37.6289 104.552 37.681 104.031 37.8242C103.523 37.9544 103.055 38.1562 102.625 38.4297C102.208 38.6901 101.837 39.0026 101.512 39.3672C101.199 39.7318 100.952 40.1159 100.77 40.5195C100.496 41.1055 100.307 41.724 100.203 42.375C100.112 43.013 100.053 43.651 100.027 44.2891C100.014 44.9271 100.014 45.5326 100.027 46.1055C100.053 46.6784 100.06 47.1797 100.047 47.6094C100.034 47.7526 99.9688 47.8633 99.8516 47.9414C99.7474 48.0065 99.6237 48.0391 99.4805 48.0391C99.3503 48.0521 99.2135 48.026 99.0703 47.9609C98.9401 47.8828 98.849 47.7721 98.7969 47.6289ZM106.512 42.7852C106.421 42.8633 106.258 42.8958 106.023 42.8828C105.802 42.8568 105.594 42.8047 105.398 42.7266C105.216 42.6484 105.092 42.5443 105.027 42.4141C104.962 42.2708 105.04 42.1081 105.262 41.9258C105.353 41.8477 105.451 41.7956 105.555 41.7695C105.672 41.7305 105.783 41.6979 105.887 41.6719C106.004 41.6328 106.095 41.5807 106.16 41.5156C106.238 41.4505 106.284 41.3464 106.297 41.2031C106.31 40.6172 106.355 40.0182 106.434 39.4062C106.525 38.7943 106.688 38.2474 106.922 37.7656C107.156 37.2839 107.488 36.8997 107.918 36.6133C108.361 36.3268 108.94 36.2161 109.656 36.2812C109.917 36.2812 110.21 36.3464 110.535 36.4766C110.861 36.5938 111.173 36.7565 111.473 36.9648C111.772 37.1602 112.033 37.401 112.254 37.6875C112.475 37.9609 112.612 38.2604 112.664 38.5859C112.755 38.7161 112.703 38.8789 112.508 39.0742C112.312 39.2695 112.039 39.4909 111.688 39.7383C111.336 39.9727 110.939 40.2135 110.496 40.4609C110.053 40.7083 109.624 40.9427 109.207 41.1641C108.803 41.3854 108.445 41.5807 108.133 41.75C107.82 41.9193 107.618 42.0365 107.527 42.1016C107.605 42.6094 107.69 43.1432 107.781 43.7031C107.872 44.263 108.003 44.7773 108.172 45.2461C108.341 45.7148 108.549 46.1055 108.797 46.418C109.057 46.7174 109.383 46.8672 109.773 46.8672C110.346 46.9062 110.835 46.8216 111.238 46.6133C111.655 46.4049 112 46.1315 112.273 45.793C112.547 45.4544 112.762 45.0833 112.918 44.6797C113.087 44.276 113.211 43.8919 113.289 43.5273C113.38 43.1628 113.439 42.8568 113.465 42.6094C113.504 42.349 113.536 42.2057 113.562 42.1797C113.706 42.1016 113.868 42.1016 114.051 42.1797C114.233 42.2448 114.337 42.4336 114.363 42.7461C114.376 43.2539 114.266 43.8333 114.031 44.4844C113.797 45.1354 113.471 45.7344 113.055 46.2812C112.651 46.8281 112.163 47.2708 111.59 47.6094C111.03 47.9349 110.431 48.0456 109.793 47.9414C109.129 47.9284 108.602 47.7396 108.211 47.375C107.82 46.9974 107.508 46.5482 107.273 46.0273C107.052 45.4935 106.889 44.9336 106.785 44.3477C106.681 43.7617 106.59 43.2409 106.512 42.7852ZM111.629 38.5859C111.212 38.013 110.789 37.6484 110.359 37.4922C109.93 37.3359 109.487 37.2904 109.031 37.3555C108.758 37.3945 108.517 37.5247 108.309 37.7461C108.1 37.9544 107.931 38.2279 107.801 38.5664C107.671 38.8919 107.579 39.263 107.527 39.6797C107.475 40.0833 107.469 40.5 107.508 40.9297L111.629 38.5859ZM113.836 36.6719C113.849 36.5286 113.895 36.418 113.973 36.3398C114.051 36.2487 114.142 36.1901 114.246 36.1641C114.35 36.138 114.461 36.138 114.578 36.1641C114.695 36.1901 114.806 36.2422 114.91 36.3203L117.898 45.7539C118.549 43.8138 119.051 42.2578 119.402 41.0859C119.754 39.901 120.008 38.9896 120.164 38.3516C120.333 37.7005 120.431 37.2643 120.457 37.043C120.496 36.8086 120.522 36.6784 120.535 36.6523C120.626 36.3659 120.743 36.1901 120.887 36.125C121.043 36.0599 121.186 36.0664 121.316 36.1445C121.447 36.2227 121.551 36.3464 121.629 36.5156C121.72 36.6719 121.746 36.8281 121.707 36.9844L118.523 47.9023C118.484 47.9805 118.406 48.0326 118.289 48.0586C118.172 48.0977 118.048 48.1107 117.918 48.0977C117.801 48.0977 117.684 48.0716 117.566 48.0195C117.462 47.9805 117.391 47.9284 117.352 47.8633L113.836 36.6719ZM123.172 42.7852C123.081 42.8633 122.918 42.8958 122.684 42.8828C122.462 42.8568 122.254 42.8047 122.059 42.7266C121.876 42.6484 121.753 42.5443 121.688 42.4141C121.622 42.2708 121.701 42.1081 121.922 41.9258C122.013 41.8477 122.111 41.7956 122.215 41.7695C122.332 41.7305 122.443 41.6979 122.547 41.6719C122.664 41.6328 122.755 41.5807 122.82 41.5156C122.898 41.4505 122.944 41.3464 122.957 41.2031C122.97 40.6172 123.016 40.0182 123.094 39.4062C123.185 38.7943 123.348 38.2474 123.582 37.7656C123.816 37.2839 124.148 36.8997 124.578 36.6133C125.021 36.3268 125.6 36.2161 126.316 36.2812C126.577 36.2812 126.87 36.3464 127.195 36.4766C127.521 36.5938 127.833 36.7565 128.133 36.9648C128.432 37.1602 128.693 37.401 128.914 37.6875C129.135 37.9609 129.272 38.2604 129.324 38.5859C129.415 38.7161 129.363 38.8789 129.168 39.0742C128.973 39.2695 128.699 39.4909 128.348 39.7383C127.996 39.9727 127.599 40.2135 127.156 40.4609C126.714 40.7083 126.284 40.9427 125.867 41.1641C125.464 41.3854 125.105 41.5807 124.793 41.75C124.48 41.9193 124.279 42.0365 124.188 42.1016C124.266 42.6094 124.35 43.1432 124.441 43.7031C124.533 44.263 124.663 44.7773 124.832 45.2461C125.001 45.7148 125.21 46.1055 125.457 46.418C125.717 46.7174 126.043 46.8672 126.434 46.8672C127.007 46.9062 127.495 46.8216 127.898 46.6133C128.315 46.4049 128.66 46.1315 128.934 45.793C129.207 45.4544 129.422 45.0833 129.578 44.6797C129.747 44.276 129.871 43.8919 129.949 43.5273C130.04 43.1628 130.099 42.8568 130.125 42.6094C130.164 42.349 130.197 42.2057 130.223 42.1797C130.366 42.1016 130.529 42.1016 130.711 42.1797C130.893 42.2448 130.997 42.4336 131.023 42.7461C131.036 43.2539 130.926 43.8333 130.691 44.4844C130.457 45.1354 130.132 45.7344 129.715 46.2812C129.311 46.8281 128.823 47.2708 128.25 47.6094C127.69 47.9349 127.091 48.0456 126.453 47.9414C125.789 47.9284 125.262 47.7396 124.871 47.375C124.48 46.9974 124.168 46.5482 123.934 46.0273C123.712 45.4935 123.549 44.9336 123.445 44.3477C123.341 43.7617 123.25 43.2409 123.172 42.7852ZM128.289 38.5859C127.872 38.013 127.449 37.6484 127.02 37.4922C126.59 37.3359 126.147 37.2904 125.691 37.3555C125.418 37.3945 125.177 37.5247 124.969 37.7461C124.76 37.9544 124.591 38.2279 124.461 38.5664C124.331 38.8919 124.24 39.263 124.188 39.6797C124.135 40.0833 124.129 40.5 124.168 40.9297L128.289 38.5859ZM131.824 47.6289C131.785 45.832 131.753 44.3086 131.727 43.0586C131.701 41.8086 131.681 40.7734 131.668 39.9531C131.655 39.1328 131.642 38.4948 131.629 38.0391C131.629 37.5703 131.622 37.2253 131.609 37.0039C131.609 36.7826 131.609 36.6523 131.609 36.6133C131.609 36.5612 131.609 36.5286 131.609 36.5156C131.622 36.3984 131.681 36.3008 131.785 36.2227C131.889 36.1445 132 36.099 132.117 36.0859C132.247 36.0599 132.371 36.0729 132.488 36.125C132.605 36.1771 132.69 36.2617 132.742 36.3789L132.801 40.8711C132.996 39.9727 133.309 39.224 133.738 38.625C134.181 38.026 134.676 37.5573 135.223 37.2188C135.77 36.8672 136.336 36.6393 136.922 36.5352C137.521 36.431 138.074 36.4245 138.582 36.5156C138.751 36.5547 138.875 36.6263 138.953 36.7305C139.044 36.8346 139.09 36.9518 139.09 37.082C139.103 37.1992 139.07 37.3164 138.992 37.4336C138.927 37.5378 138.836 37.6159 138.719 37.668C138.133 37.6289 137.579 37.681 137.059 37.8242C136.551 37.9544 136.082 38.1562 135.652 38.4297C135.236 38.6901 134.865 39.0026 134.539 39.3672C134.227 39.7318 133.979 40.1159 133.797 40.5195C133.523 41.1055 133.335 41.724 133.23 42.375C133.139 43.013 133.081 43.651 133.055 44.2891C133.042 44.9271 133.042 45.5326 133.055 46.1055C133.081 46.6784 133.087 47.1797 133.074 47.6094C133.061 47.7526 132.996 47.8633 132.879 47.9414C132.775 48.0065 132.651 48.0391 132.508 48.0391C132.378 48.0521 132.241 48.026 132.098 47.9609C131.967 47.8828 131.876 47.7721 131.824 47.6289ZM151.336 47.4141C151.349 47.3359 151.531 47.2383 151.883 47.1211C152.247 47.0039 152.697 46.8672 153.23 46.7109C153.764 46.5417 154.357 46.3529 155.008 46.1445C155.659 45.9232 156.284 45.6758 156.883 45.4023C157.495 45.1289 158.042 44.8294 158.523 44.5039C159.005 44.1654 159.357 43.7943 159.578 43.3906C159.578 43.1823 159.435 43.0195 159.148 42.9023C158.862 42.7852 158.484 42.6875 158.016 42.6094C157.547 42.5312 157.013 42.4661 156.414 42.4141C155.815 42.362 155.197 42.2904 154.559 42.1992C153.934 42.1081 153.322 41.9909 152.723 41.8477C152.124 41.7044 151.59 41.5091 151.121 41.2617C150.652 41.0013 150.275 40.6823 149.988 40.3047C149.702 39.9141 149.559 39.4323 149.559 38.8594C149.559 38.2995 149.682 37.7331 149.93 37.1602C150.19 36.5742 150.529 36.0078 150.945 35.4609C151.362 34.9141 151.837 34.3997 152.371 33.918C152.918 33.4362 153.484 33.013 154.07 32.6484C154.656 32.2839 155.236 31.9974 155.809 31.7891C156.382 31.5807 156.915 31.4766 157.41 31.4766C157.54 31.4766 157.677 31.4766 157.82 31.4766C157.964 31.4635 158.087 31.4701 158.191 31.4961C158.309 31.5221 158.4 31.5807 158.465 31.6719C158.543 31.75 158.582 31.8737 158.582 32.043C158.582 32.4596 158.445 32.7591 158.172 32.9414C157.898 33.1237 157.566 33.2148 157.176 33.2148L156.336 32.9414C156.01 32.9414 155.639 33.0391 155.223 33.2344C154.819 33.4167 154.409 33.6706 153.992 33.9961C153.576 34.3086 153.165 34.6732 152.762 35.0898C152.371 35.4935 152.02 35.9167 151.707 36.3594C151.408 36.7891 151.16 37.2253 150.965 37.668C150.783 38.0977 150.691 38.4883 150.691 38.8398C150.691 39.2826 150.835 39.6471 151.121 39.9336C151.408 40.207 151.785 40.4284 152.254 40.5977C152.723 40.7669 153.257 40.8971 153.855 40.9883C154.467 41.0664 155.086 41.138 155.711 41.2031C156.336 41.2682 156.948 41.3398 157.547 41.418C158.159 41.4961 158.699 41.6068 159.168 41.75C159.637 41.8802 160.014 42.069 160.301 42.3164C160.587 42.5508 160.73 42.8698 160.73 43.2734C160.73 43.6641 160.574 44.0547 160.262 44.4453C159.949 44.8359 159.539 45.2135 159.031 45.5781C158.523 45.9297 157.938 46.2617 157.273 46.5742C156.622 46.8737 155.965 47.1341 155.301 47.3555C154.637 47.5638 153.986 47.7266 153.348 47.8438C152.723 47.9609 152.182 48.013 151.727 48C151.596 48 151.486 47.9544 151.395 47.8633C151.303 47.7721 151.284 47.6224 151.336 47.4141ZM162.566 38.7227L160.77 39.3281C160.626 39.2891 160.509 39.2174 160.418 39.1133C160.314 39.0091 160.242 38.8984 160.203 38.7812C160.164 38.6641 160.158 38.5534 160.184 38.4492C160.197 38.3451 160.249 38.2669 160.34 38.2148L162.566 37.375L162.527 31.8477C162.566 31.6784 162.651 31.5547 162.781 31.4766C162.911 31.3984 163.042 31.3659 163.172 31.3789C163.315 31.3789 163.445 31.4245 163.562 31.5156C163.68 31.5938 163.758 31.6979 163.797 31.8281C163.771 32.2318 163.751 32.6615 163.738 33.1172C163.725 33.5599 163.712 34.0091 163.699 34.4648C163.699 34.9076 163.706 35.3438 163.719 35.7734C163.732 36.1901 163.758 36.5742 163.797 36.9258L166.824 35.6953C167.007 35.6432 167.15 35.6628 167.254 35.7539C167.358 35.832 167.423 35.9427 167.449 36.0859C167.488 36.2161 167.482 36.3464 167.43 36.4766C167.378 36.6068 167.286 36.6979 167.156 36.75L163.797 38.2734C163.797 38.4036 163.803 38.7161 163.816 39.2109C163.829 39.6927 163.842 40.2656 163.855 40.9297C163.868 41.5938 163.882 42.3034 163.895 43.0586C163.908 43.8138 163.914 44.5234 163.914 45.1875C163.927 45.8516 163.934 46.431 163.934 46.9258C163.947 47.4076 163.953 47.7135 163.953 47.8438C163.927 48.2734 163.803 48.4883 163.582 48.4883C163.361 48.4883 163.12 48.3841 162.859 48.1758L162.566 38.7227ZM168.602 47.9219C168.081 47.8568 167.651 47.6484 167.312 47.2969C166.987 46.9453 166.727 46.5156 166.531 46.0078C166.336 45.5 166.206 44.9466 166.141 44.3477C166.089 43.7357 166.076 43.1367 166.102 42.5508C166.141 41.6523 166.303 40.793 166.59 39.9727C166.889 39.1523 167.254 38.4427 167.684 37.8438C168.126 37.2318 168.608 36.763 169.129 36.4375C169.663 36.099 170.184 35.9688 170.691 36.0469C171.225 36.125 171.655 36.3789 171.98 36.8086C172.319 37.2383 172.579 37.7656 172.762 38.3906C172.944 39.0156 173.055 39.6992 173.094 40.4414C173.133 41.1706 173.126 41.8737 173.074 42.5508C173.009 43.319 172.84 44.0352 172.566 44.6992C172.293 45.3633 171.948 45.9362 171.531 46.418C171.128 46.8997 170.665 47.2773 170.145 47.5508C169.637 47.8112 169.122 47.9349 168.602 47.9219ZM170.496 37.1602C170.066 37.1081 169.663 37.2448 169.285 37.5703C168.921 37.8828 168.589 38.306 168.289 38.8398C168.003 39.3607 167.762 39.9596 167.566 40.6367C167.371 41.3008 167.241 41.9583 167.176 42.6094C167.124 43.0781 167.104 43.5599 167.117 44.0547C167.13 44.5495 167.189 44.9987 167.293 45.4023C167.41 45.806 167.586 46.138 167.82 46.3984C168.068 46.6458 168.393 46.7695 168.797 46.7695C169.122 46.7826 169.461 46.6719 169.812 46.4375C170.177 46.2031 170.516 45.8906 170.828 45.5C171.141 45.0964 171.414 44.6406 171.648 44.1328C171.896 43.625 172.059 43.1042 172.137 42.5703C172.228 42.0104 172.247 41.4375 172.195 40.8516C172.156 40.2526 172.059 39.6992 171.902 39.1914C171.759 38.6836 171.564 38.2474 171.316 37.8828C171.082 37.5052 170.809 37.2643 170.496 37.1602ZM174.012 47.6289C173.973 45.832 173.94 44.3086 173.914 43.0586C173.888 41.8086 173.868 40.7734 173.855 39.9531C173.842 39.1328 173.829 38.4948 173.816 38.0391C173.816 37.5703 173.81 37.2253 173.797 37.0039C173.797 36.7826 173.797 36.6523 173.797 36.6133C173.797 36.5612 173.797 36.5286 173.797 36.5156C173.81 36.3984 173.868 36.3008 173.973 36.2227C174.077 36.1445 174.188 36.099 174.305 36.0859C174.435 36.0599 174.559 36.0729 174.676 36.125C174.793 36.1771 174.878 36.2617 174.93 36.3789L174.988 40.8711C175.184 39.9727 175.496 39.224 175.926 38.625C176.368 38.026 176.863 37.5573 177.41 37.2188C177.957 36.8672 178.523 36.6393 179.109 36.5352C179.708 36.431 180.262 36.4245 180.77 36.5156C180.939 36.5547 181.062 36.6263 181.141 36.7305C181.232 36.8346 181.277 36.9518 181.277 37.082C181.29 37.1992 181.258 37.3164 181.18 37.4336C181.115 37.5378 181.023 37.6159 180.906 37.668C180.32 37.6289 179.767 37.681 179.246 37.8242C178.738 37.9544 178.27 38.1562 177.84 38.4297C177.423 38.6901 177.052 39.0026 176.727 39.3672C176.414 39.7318 176.167 40.1159 175.984 40.5195C175.711 41.1055 175.522 41.724 175.418 42.375C175.327 43.013 175.268 43.651 175.242 44.2891C175.229 44.9271 175.229 45.5326 175.242 46.1055C175.268 46.6784 175.275 47.1797 175.262 47.6094C175.249 47.7526 175.184 47.8633 175.066 47.9414C174.962 48.0065 174.839 48.0391 174.695 48.0391C174.565 48.0521 174.428 48.026 174.285 47.9609C174.155 47.8828 174.064 47.7721 174.012 47.6289ZM185.73 48.0195L181.414 38.1953C181.31 38.0391 181.284 37.8828 181.336 37.7266C181.388 37.5573 181.479 37.4271 181.609 37.3359C181.74 37.2448 181.889 37.2122 182.059 37.2383C182.241 37.2513 182.404 37.3555 182.547 37.5508L186.141 46.1445L187.84 36.4375C187.918 36.3984 188.009 36.3659 188.113 36.3398C188.23 36.3138 188.341 36.3073 188.445 36.3203C188.562 36.3333 188.667 36.3724 188.758 36.4375C188.849 36.5026 188.908 36.6068 188.934 36.75C188.868 37.2708 188.771 37.9349 188.641 38.7422C188.51 39.5495 188.367 40.3828 188.211 41.2422C188.055 42.0885 187.898 42.9023 187.742 43.6836C187.599 44.4518 187.488 45.0638 187.41 45.5195C187.358 45.793 187.293 46.1641 187.215 46.6328C187.137 47.0885 187.046 47.5898 186.941 48.1367C186.85 48.6836 186.746 49.25 186.629 49.8359C186.525 50.4349 186.421 51.0078 186.316 51.5547C186.225 52.1016 186.128 52.5964 186.023 53.0391C185.932 53.4948 185.854 53.8594 185.789 54.1328C185.763 54.2891 185.685 54.4062 185.555 54.4844C185.424 54.5625 185.281 54.5951 185.125 54.582C184.969 54.569 184.819 54.5169 184.676 54.4258C184.546 54.3346 184.474 54.2044 184.461 54.0352L185.73 48.0195Z" fill="black"/>
</svg>
