<svg width="169" height="62" viewBox="0 0 169 62" fill="none" xmlns="http://www.w3.org/2000/svg">
<path d="M33.3467 19.4905C34.2651 19.0577 34.2952 19.6347 34.1954 19.9773C33.9559 20.7995 33.0113 21.8898 32.5689 22.3322C30.6385 24.2626 29.7105 24.2194 29.4878 23.9564C29.3865 23.8149 29.4742 23.4844 30.3926 23.0516C31.1784 22.7515 31.7236 22.9347 32.9984 24.2095C33.5854 24.8367 35.2453 26.6977 35.9176 28.8178C36.1017 29.6454 36.0455 30.9967 35.1929 29.2996" stroke="black" stroke-linecap="round"/>
<path d="M33.911 25.4765C34.6134 25.237 35.2341 24.8873 35.6104 24.2251C35.7901 23.9089 35.9267 23.5736 36.0138 23.2206" stroke="black" stroke-linecap="round"/>
<path d="M42.0353 27.7514C42.8566 28.3244 42.3714 28.6471 42.0262 28.7368C41.1976 28.952 39.7942 28.6943 39.196 28.5386C36.586 27.8589 36.1725 27.0329 36.292 26.7048C36.3653 26.5443 36.6942 26.4504 37.5154 27.0234C38.1572 27.5497 38.2634 28.1161 37.7788 29.8756C37.5208 30.7064 36.7155 33.1007 35.2059 34.7729C34.5786 35.3578 33.3808 36.0037 34.4364 34.3929" stroke="black" stroke-linecap="round"/>
<path d="M37.1249 31.3176C37.6737 31.8028 38.2782 32.1607 39.0346 32.1462C39.3959 32.1393 39.7526 32.0853 40.1006 31.9792" stroke="black" stroke-linecap="round"/>
<path d="M38.8488 39.1511C38.7516 40.1569 38.2364 39.9025 37.9909 39.6496C37.4018 39.0426 36.9431 37.6946 36.7873 37.0965C36.1076 34.4864 36.6221 33.7036 36.9644 33.6385C37.139 33.6195 37.3802 33.8561 37.283 34.862C37.139 35.6884 36.7 36.0715 34.9405 36.5562C34.0956 36.7598 31.6304 37.2932 29.4485 36.8452C28.637 36.6025 27.4955 35.8971 29.4037 35.9834" stroke="black" stroke-linecap="round"/>
<path d="M33.3738 36.7313C33.2202 37.4559 33.204 38.1635 33.5841 38.8113C33.7656 39.1206 33.9858 39.4018 34.2468 39.6487" stroke="black" stroke-linecap="round"/>
<path d="M27.3836 42.6999C26.4651 43.1328 26.435 42.5558 26.5348 42.2132C26.7743 41.3909 27.7189 40.3006 28.1613 39.8582C30.0917 37.9278 31.0197 37.9711 31.2425 38.234C31.3438 38.3755 31.256 38.706 30.3376 39.1389C29.5518 39.439 29.0066 39.2557 27.7318 37.9809C27.1449 37.3537 25.485 35.4927 24.8126 33.3726C24.6285 32.545 24.6848 31.1937 25.5373 32.8908" stroke="black" stroke-linecap="round"/>
<path d="M26.8189 36.714C26.1166 36.9534 25.4958 37.3031 25.1196 37.9653C24.9399 38.2816 24.8033 38.6168 24.7162 38.9698" stroke="black" stroke-linecap="round"/>
<path d="M21.5384 22.994C21.6356 21.9881 22.1508 22.2425 22.3963 22.4954C22.9854 23.1024 23.4442 24.4504 23.5999 25.0486C24.2796 27.6586 23.7651 28.4414 23.4228 28.5065C23.2482 28.5255 23.007 28.2889 23.1042 27.2831C23.2482 26.4567 23.6872 26.0735 25.4467 25.5888C26.2916 25.3852 28.7568 24.8518 30.9387 25.2998C31.7502 25.5425 32.8917 26.2479 30.9835 26.1616" stroke="black" stroke-linecap="round"/>
<path d="M27.0127 25.4138C27.1663 24.6891 27.1825 23.9815 26.8024 23.3337C26.6208 23.0244 26.4007 22.7433 26.1397 22.4963" stroke="black" stroke-linecap="round"/>
<path d="M18.762 34.804C17.9408 34.231 18.426 33.9083 18.7712 33.8187C19.5998 33.6034 21.0032 33.8611 21.6013 34.0169C24.2114 34.6965 24.6249 35.5226 24.5054 35.8506C24.432 36.0111 24.1031 36.1051 23.2819 35.532C22.6402 35.0057 22.5339 34.4393 23.0186 32.6798C23.2766 31.8491 24.0818 29.4547 25.5914 27.7825C26.2188 27.1976 27.4166 26.5517 26.3609 28.1625" stroke="black" stroke-linecap="round"/>
<path d="M23.6722 31.2378C23.1235 30.7526 22.5189 30.3947 21.7625 30.4092C21.4013 30.4161 21.0446 30.4702 20.6965 30.5762" stroke="black" stroke-linecap="round"/>
<path d="M30.4926 15.3638C32.9855 14.2397 39.6204 12.806 46.2172 16.0642C47.0251 18.5414 48.0914 24.8662 45.8944 30.3483M30.4926 15.3638C21.1925 18.7509 16.9525 26.0296 14.8423 31.0141M30.4926 15.3638C24.3804 13.592 18.1494 14.567 15.7979 15.2761C14.4584 18.8055 13.2233 26.4738 14.8423 31.0141M30.4926 15.3638C34.3508 16.0224 42.8327 19.9414 45.8944 30.3483M45.8944 30.3483C45.0362 34.0808 40.7868 42.5186 30.6547 46.4092M45.8944 30.3483C46.8391 32.9623 48.1779 39.7266 45.9755 45.871C44.103 47.059 38.4174 48.8299 30.6547 46.4092M30.6547 46.4092C28.1641 47.2573 21.6555 48.4278 15.546 46.3248C14.2502 44.4725 12.8938 41.5858 14.8423 31.0141M30.6547 46.4092C20.7406 43.8403 16.4647 35.1406 14.8423 31.0141" stroke="black" stroke-linecap="round"/>
<path d="M23.2563 14.3877C24.9235 12.9943 28.7976 9.99621 30.957 9.15079C32.4009 9.76001 35.6563 11.5964 37.1265 14.0682M47.1901 23.7146C48.4242 24.6705 51.1759 27.3664 52.3095 30.5033C52.0257 31.4715 50.6234 34.2425 47.2847 37.5813M36.8545 47.6008C36.436 48.1561 34.6009 49.8545 30.6078 52.205C29.2986 52.0086 26.0654 50.8344 23.607 47.7083M13.9573 38.0586C12.8623 36.9636 10.3068 33.9072 8.84468 30.4419C9.12739 29.6117 10.5268 27.1994 13.8629 24.1918" stroke="black" stroke-linecap="round"/>
<path d="M61.5859 20.9062C61.5859 20.75 61.6315 20.6393 61.7227 20.5742C61.8138 20.5091 61.9245 20.4635 62.0547 20.4375C62.1849 20.4115 62.3216 20.3984 62.4648 20.3984C62.6081 20.3984 62.7318 20.3919 62.8359 20.3789V22.4492C63.7865 22.1628 64.5742 21.9089 65.1992 21.6875C65.8242 21.4531 66.3906 21.2513 66.8984 21.082C67.4062 20.8997 67.901 20.737 68.3828 20.5938C68.8646 20.4375 69.4375 20.2878 70.1016 20.1445C70.2057 20.1445 70.2773 20.1966 70.3164 20.3008C70.3555 20.4049 70.375 20.4961 70.375 20.5742C70.375 20.7435 70.2839 20.8802 70.1016 20.9844L62.9141 23.6211L63.2461 29.9492C64.3138 29.3503 65.2122 28.8424 65.9414 28.4258C66.6836 28.0091 67.2956 27.6641 67.7773 27.3906C68.2591 27.1172 68.6302 26.9089 68.8906 26.7656C69.1641 26.6224 69.3659 26.5182 69.4961 26.4531C69.6263 26.388 69.7044 26.349 69.7305 26.3359C69.7565 26.3229 69.776 26.3164 69.7891 26.3164C69.9062 26.2773 69.9844 26.2839 70.0234 26.3359C70.0625 26.375 70.082 26.4401 70.082 26.5312C70.082 26.6224 70.0625 26.7266 70.0234 26.8438C69.9974 26.9609 69.9648 27.0716 69.9258 27.1758C69.8607 27.2669 69.6458 27.4232 69.2812 27.6445C68.9297 27.8659 68.5065 28.1198 68.0117 28.4062C67.5169 28.6927 66.9896 28.9987 66.4297 29.3242C65.8828 29.6367 65.3685 29.9297 64.8867 30.2031C64.418 30.4766 64.0273 30.7174 63.7148 30.9258C63.4023 31.1341 63.2461 31.2708 63.2461 31.3359L63.3047 36.4336C63.3047 36.6159 63.2721 36.7591 63.207 36.8633C63.1419 36.9674 63.0378 37.0195 62.8945 37.0195C62.7383 37.0195 62.5951 36.8177 62.4648 36.4141C62.3477 35.9974 62.2435 35.4505 62.1523 34.7734C62.0612 34.0833 61.9831 33.2956 61.918 32.4102C61.8529 31.5117 61.8008 30.5872 61.7617 29.6367C61.7227 28.6862 61.6901 27.7422 61.6641 26.8047C61.638 25.8542 61.6185 24.9818 61.6055 24.1875C61.5924 23.3932 61.5859 22.7031 61.5859 22.1172C61.5859 21.5312 61.5859 21.1276 61.5859 20.9062ZM72.3867 36.9219C71.8659 36.8568 71.4362 36.6484 71.0977 36.2969C70.7721 35.9453 70.5117 35.5156 70.3164 35.0078C70.1211 34.5 69.9909 33.9466 69.9258 33.3477C69.8737 32.7357 69.8607 32.1367 69.8867 31.5508C69.9258 30.6523 70.0885 29.793 70.375 28.9727C70.6745 28.1523 71.0391 27.4427 71.4688 26.8438C71.9115 26.2318 72.3932 25.763 72.9141 25.4375C73.4479 25.099 73.9688 24.9688 74.4766 25.0469C75.0104 25.125 75.4401 25.3789 75.7656 25.8086C76.1042 26.2383 76.3646 26.7656 76.5469 27.3906C76.7292 28.0156 76.8398 28.6992 76.8789 29.4414C76.918 30.1706 76.9115 30.8737 76.8594 31.5508C76.7943 32.319 76.625 33.0352 76.3516 33.6992C76.0781 34.3633 75.7331 34.9362 75.3164 35.418C74.9128 35.8997 74.4505 36.2773 73.9297 36.5508C73.4219 36.8112 72.9076 36.9349 72.3867 36.9219ZM74.2812 26.1602C73.8516 26.1081 73.4479 26.2448 73.0703 26.5703C72.7057 26.8828 72.3737 27.306 72.0742 27.8398C71.7878 28.3607 71.5469 28.9596 71.3516 29.6367C71.1562 30.3008 71.026 30.9583 70.9609 31.6094C70.9089 32.0781 70.8893 32.5599 70.9023 33.0547C70.9154 33.5495 70.974 33.9987 71.0781 34.4023C71.1953 34.806 71.3711 35.138 71.6055 35.3984C71.8529 35.6458 72.1784 35.7695 72.582 35.7695C72.9076 35.7826 73.2461 35.6719 73.5977 35.4375C73.9622 35.2031 74.3008 34.8906 74.6133 34.5C74.9258 34.0964 75.1992 33.6406 75.4336 33.1328C75.681 32.625 75.8438 32.1042 75.9219 31.5703C76.013 31.0104 76.0326 30.4375 75.9805 29.8516C75.9414 29.2526 75.8438 28.6992 75.6875 28.1914C75.5443 27.6836 75.349 27.2474 75.1016 26.8828C74.8672 26.5052 74.5938 26.2643 74.2812 26.1602ZM77.7969 36.6289C77.7578 34.832 77.7253 33.3086 77.6992 32.0586C77.6732 30.8086 77.6536 29.7734 77.6406 28.9531C77.6276 28.1328 77.6146 27.4948 77.6016 27.0391C77.6016 26.5703 77.5951 26.2253 77.582 26.0039C77.582 25.7826 77.582 25.6523 77.582 25.6133C77.582 25.5612 77.582 25.5286 77.582 25.5156C77.5951 25.3984 77.6536 25.3008 77.7578 25.2227C77.862 25.1445 77.9727 25.099 78.0898 25.0859C78.2201 25.0599 78.3438 25.0729 78.4609 25.125C78.5781 25.1771 78.6628 25.2617 78.7148 25.3789L78.7734 29.8711C78.9688 28.9727 79.2812 28.224 79.7109 27.625C80.1536 27.026 80.6484 26.5573 81.1953 26.2188C81.7422 25.8672 82.3086 25.6393 82.8945 25.5352C83.4935 25.431 84.0469 25.4245 84.5547 25.5156C84.724 25.5547 84.8477 25.6263 84.9258 25.7305C85.0169 25.8346 85.0625 25.9518 85.0625 26.082C85.0755 26.1992 85.043 26.3164 84.9648 26.4336C84.8997 26.5378 84.8086 26.6159 84.6914 26.668C84.1055 26.6289 83.5521 26.681 83.0312 26.8242C82.5234 26.9544 82.0547 27.1562 81.625 27.4297C81.2083 27.6901 80.8372 28.0026 80.5117 28.3672C80.1992 28.7318 79.9518 29.1159 79.7695 29.5195C79.4961 30.1055 79.3073 30.724 79.2031 31.375C79.112 32.013 79.0534 32.651 79.0273 33.2891C79.0143 33.9271 79.0143 34.5326 79.0273 35.1055C79.0534 35.6784 79.0599 36.1797 79.0469 36.6094C79.0339 36.7526 78.9688 36.8633 78.8516 36.9414C78.7474 37.0065 78.6237 37.0391 78.4805 37.0391C78.3503 37.0521 78.2135 37.026 78.0703 36.9609C77.9401 36.8828 77.849 36.7721 77.7969 36.6289ZM85.5117 31.7852C85.4206 31.8633 85.2578 31.8958 85.0234 31.8828C84.8021 31.8568 84.5938 31.8047 84.3984 31.7266C84.2161 31.6484 84.0924 31.5443 84.0273 31.4141C83.9622 31.2708 84.0404 31.1081 84.2617 30.9258C84.3529 30.8477 84.4505 30.7956 84.5547 30.7695C84.6719 30.7305 84.7826 30.6979 84.8867 30.6719C85.0039 30.6328 85.0951 30.5807 85.1602 30.5156C85.2383 30.4505 85.2839 30.3464 85.2969 30.2031C85.3099 29.6172 85.3555 29.0182 85.4336 28.4062C85.5247 27.7943 85.6875 27.2474 85.9219 26.7656C86.1562 26.2839 86.4883 25.8997 86.918 25.6133C87.3607 25.3268 87.9401 25.2161 88.6562 25.2812C88.9167 25.2812 89.2096 25.3464 89.5352 25.4766C89.8607 25.5938 90.1732 25.7565 90.4727 25.9648C90.7721 26.1602 91.0326 26.401 91.2539 26.6875C91.4753 26.9609 91.612 27.2604 91.6641 27.5859C91.7552 27.7161 91.7031 27.8789 91.5078 28.0742C91.3125 28.2695 91.0391 28.4909 90.6875 28.7383C90.3359 28.9727 89.9388 29.2135 89.4961 29.4609C89.0534 29.7083 88.6237 29.9427 88.207 30.1641C87.8034 30.3854 87.4453 30.5807 87.1328 30.75C86.8203 30.9193 86.6185 31.0365 86.5273 31.1016C86.6055 31.6094 86.6901 32.1432 86.7812 32.7031C86.8724 33.263 87.0026 33.7773 87.1719 34.2461C87.3411 34.7148 87.5495 35.1055 87.7969 35.418C88.0573 35.7174 88.3828 35.8672 88.7734 35.8672C89.3464 35.9062 89.8346 35.8216 90.2383 35.6133C90.6549 35.4049 91 35.1315 91.2734 34.793C91.5469 34.4544 91.7617 34.0833 91.918 33.6797C92.0872 33.276 92.2109 32.8919 92.2891 32.5273C92.3802 32.1628 92.4388 31.8568 92.4648 31.6094C92.5039 31.349 92.5365 31.2057 92.5625 31.1797C92.7057 31.1016 92.8685 31.1016 93.0508 31.1797C93.2331 31.2448 93.3372 31.4336 93.3633 31.7461C93.3763 32.2539 93.2656 32.8333 93.0312 33.4844C92.7969 34.1354 92.4714 34.7344 92.0547 35.2812C91.651 35.8281 91.1628 36.2708 90.5898 36.6094C90.0299 36.9349 89.431 37.0456 88.793 36.9414C88.1289 36.9284 87.6016 36.7396 87.2109 36.375C86.8203 35.9974 86.5078 35.5482 86.2734 35.0273C86.0521 34.4935 85.8893 33.9336 85.7852 33.3477C85.681 32.7617 85.5898 32.2409 85.5117 31.7852ZM90.6289 27.5859C90.2122 27.013 89.7891 26.6484 89.3594 26.4922C88.9297 26.3359 88.487 26.2904 88.0312 26.3555C87.7578 26.3945 87.5169 26.5247 87.3086 26.7461C87.1003 26.9544 86.931 27.2279 86.8008 27.5664C86.6706 27.8919 86.5794 28.263 86.5273 28.6797C86.4753 29.0833 86.4688 29.5 86.5078 29.9297L90.6289 27.5859ZM92.8359 25.6719C92.849 25.5286 92.8945 25.418 92.9727 25.3398C93.0508 25.2487 93.1419 25.1901 93.2461 25.1641C93.3503 25.138 93.4609 25.138 93.5781 25.1641C93.6953 25.1901 93.806 25.2422 93.9102 25.3203L96.8984 34.7539C97.5495 32.8138 98.0508 31.2578 98.4023 30.0859C98.7539 28.901 99.0078 27.9896 99.1641 27.3516C99.3333 26.7005 99.431 26.2643 99.457 26.043C99.4961 25.8086 99.5221 25.6784 99.5352 25.6523C99.6263 25.3659 99.7435 25.1901 99.8867 25.125C100.043 25.0599 100.186 25.0664 100.316 25.1445C100.447 25.2227 100.551 25.3464 100.629 25.5156C100.72 25.6719 100.746 25.8281 100.707 25.9844L97.5234 36.9023C97.4844 36.9805 97.4062 37.0326 97.2891 37.0586C97.1719 37.0977 97.0482 37.1107 96.918 37.0977C96.8008 37.0977 96.6836 37.0716 96.5664 37.0195C96.4622 36.9805 96.3906 36.9284 96.3516 36.8633L92.8359 25.6719ZM102.172 31.7852C102.081 31.8633 101.918 31.8958 101.684 31.8828C101.462 31.8568 101.254 31.8047 101.059 31.7266C100.876 31.6484 100.753 31.5443 100.688 31.4141C100.622 31.2708 100.701 31.1081 100.922 30.9258C101.013 30.8477 101.111 30.7956 101.215 30.7695C101.332 30.7305 101.443 30.6979 101.547 30.6719C101.664 30.6328 101.755 30.5807 101.82 30.5156C101.898 30.4505 101.944 30.3464 101.957 30.2031C101.97 29.6172 102.016 29.0182 102.094 28.4062C102.185 27.7943 102.348 27.2474 102.582 26.7656C102.816 26.2839 103.148 25.8997 103.578 25.6133C104.021 25.3268 104.6 25.2161 105.316 25.2812C105.577 25.2812 105.87 25.3464 106.195 25.4766C106.521 25.5938 106.833 25.7565 107.133 25.9648C107.432 26.1602 107.693 26.401 107.914 26.6875C108.135 26.9609 108.272 27.2604 108.324 27.5859C108.415 27.7161 108.363 27.8789 108.168 28.0742C107.973 28.2695 107.699 28.4909 107.348 28.7383C106.996 28.9727 106.599 29.2135 106.156 29.4609C105.714 29.7083 105.284 29.9427 104.867 30.1641C104.464 30.3854 104.105 30.5807 103.793 30.75C103.48 30.9193 103.279 31.0365 103.188 31.1016C103.266 31.6094 103.35 32.1432 103.441 32.7031C103.533 33.263 103.663 33.7773 103.832 34.2461C104.001 34.7148 104.21 35.1055 104.457 35.418C104.717 35.7174 105.043 35.8672 105.434 35.8672C106.007 35.9062 106.495 35.8216 106.898 35.6133C107.315 35.4049 107.66 35.1315 107.934 34.793C108.207 34.4544 108.422 34.0833 108.578 33.6797C108.747 33.276 108.871 32.8919 108.949 32.5273C109.04 32.1628 109.099 31.8568 109.125 31.6094C109.164 31.349 109.197 31.2057 109.223 31.1797C109.366 31.1016 109.529 31.1016 109.711 31.1797C109.893 31.2448 109.997 31.4336 110.023 31.7461C110.036 32.2539 109.926 32.8333 109.691 33.4844C109.457 34.1354 109.132 34.7344 108.715 35.2812C108.311 35.8281 107.823 36.2708 107.25 36.6094C106.69 36.9349 106.091 37.0456 105.453 36.9414C104.789 36.9284 104.262 36.7396 103.871 36.375C103.48 35.9974 103.168 35.5482 102.934 35.0273C102.712 34.4935 102.549 33.9336 102.445 33.3477C102.341 32.7617 102.25 32.2409 102.172 31.7852ZM107.289 27.5859C106.872 27.013 106.449 26.6484 106.02 26.4922C105.59 26.3359 105.147 26.2904 104.691 26.3555C104.418 26.3945 104.177 26.5247 103.969 26.7461C103.76 26.9544 103.591 27.2279 103.461 27.5664C103.331 27.8919 103.24 28.263 103.188 28.6797C103.135 29.0833 103.129 29.5 103.168 29.9297L107.289 27.5859ZM110.824 36.6289C110.785 34.832 110.753 33.3086 110.727 32.0586C110.701 30.8086 110.681 29.7734 110.668 28.9531C110.655 28.1328 110.642 27.4948 110.629 27.0391C110.629 26.5703 110.622 26.2253 110.609 26.0039C110.609 25.7826 110.609 25.6523 110.609 25.6133C110.609 25.5612 110.609 25.5286 110.609 25.5156C110.622 25.3984 110.681 25.3008 110.785 25.2227C110.889 25.1445 111 25.099 111.117 25.0859C111.247 25.0599 111.371 25.0729 111.488 25.125C111.605 25.1771 111.69 25.2617 111.742 25.3789L111.801 29.8711C111.996 28.9727 112.309 28.224 112.738 27.625C113.181 27.026 113.676 26.5573 114.223 26.2188C114.77 25.8672 115.336 25.6393 115.922 25.5352C116.521 25.431 117.074 25.4245 117.582 25.5156C117.751 25.5547 117.875 25.6263 117.953 25.7305C118.044 25.8346 118.09 25.9518 118.09 26.082C118.103 26.1992 118.07 26.3164 117.992 26.4336C117.927 26.5378 117.836 26.6159 117.719 26.668C117.133 26.6289 116.579 26.681 116.059 26.8242C115.551 26.9544 115.082 27.1562 114.652 27.4297C114.236 27.6901 113.865 28.0026 113.539 28.3672C113.227 28.7318 112.979 29.1159 112.797 29.5195C112.523 30.1055 112.335 30.724 112.23 31.375C112.139 32.013 112.081 32.651 112.055 33.2891C112.042 33.9271 112.042 34.5326 112.055 35.1055C112.081 35.6784 112.087 36.1797 112.074 36.6094C112.061 36.7526 111.996 36.8633 111.879 36.9414C111.775 37.0065 111.651 37.0391 111.508 37.0391C111.378 37.0521 111.241 37.026 111.098 36.9609C110.967 36.8828 110.876 36.7721 110.824 36.6289ZM130.336 36.4141C130.349 36.3359 130.531 36.2383 130.883 36.1211C131.247 36.0039 131.697 35.8672 132.23 35.7109C132.764 35.5417 133.357 35.3529 134.008 35.1445C134.659 34.9232 135.284 34.6758 135.883 34.4023C136.495 34.1289 137.042 33.8294 137.523 33.5039C138.005 33.1654 138.357 32.7943 138.578 32.3906C138.578 32.1823 138.435 32.0195 138.148 31.9023C137.862 31.7852 137.484 31.6875 137.016 31.6094C136.547 31.5312 136.013 31.4661 135.414 31.4141C134.815 31.362 134.197 31.2904 133.559 31.1992C132.934 31.1081 132.322 30.9909 131.723 30.8477C131.124 30.7044 130.59 30.5091 130.121 30.2617C129.652 30.0013 129.275 29.6823 128.988 29.3047C128.702 28.9141 128.559 28.4323 128.559 27.8594C128.559 27.2995 128.682 26.7331 128.93 26.1602C129.19 25.5742 129.529 25.0078 129.945 24.4609C130.362 23.9141 130.837 23.3997 131.371 22.918C131.918 22.4362 132.484 22.013 133.07 21.6484C133.656 21.2839 134.236 20.9974 134.809 20.7891C135.382 20.5807 135.915 20.4766 136.41 20.4766C136.54 20.4766 136.677 20.4766 136.82 20.4766C136.964 20.4635 137.087 20.4701 137.191 20.4961C137.309 20.5221 137.4 20.5807 137.465 20.6719C137.543 20.75 137.582 20.8737 137.582 21.043C137.582 21.4596 137.445 21.7591 137.172 21.9414C136.898 22.1237 136.566 22.2148 136.176 22.2148L135.336 21.9414C135.01 21.9414 134.639 22.0391 134.223 22.2344C133.819 22.4167 133.409 22.6706 132.992 22.9961C132.576 23.3086 132.165 23.6732 131.762 24.0898C131.371 24.4935 131.02 24.9167 130.707 25.3594C130.408 25.7891 130.16 26.2253 129.965 26.668C129.783 27.0977 129.691 27.4883 129.691 27.8398C129.691 28.2826 129.835 28.6471 130.121 28.9336C130.408 29.207 130.785 29.4284 131.254 29.5977C131.723 29.7669 132.257 29.8971 132.855 29.9883C133.467 30.0664 134.086 30.138 134.711 30.2031C135.336 30.2682 135.948 30.3398 136.547 30.418C137.159 30.4961 137.699 30.6068 138.168 30.75C138.637 30.8802 139.014 31.069 139.301 31.3164C139.587 31.5508 139.73 31.8698 139.73 32.2734C139.73 32.6641 139.574 33.0547 139.262 33.4453C138.949 33.8359 138.539 34.2135 138.031 34.5781C137.523 34.9297 136.938 35.2617 136.273 35.5742C135.622 35.8737 134.965 36.1341 134.301 36.3555C133.637 36.5638 132.986 36.7266 132.348 36.8438C131.723 36.9609 131.182 37.013 130.727 37C130.596 37 130.486 36.9544 130.395 36.8633C130.303 36.7721 130.284 36.6224 130.336 36.4141ZM141.566 27.7227L139.77 28.3281C139.626 28.2891 139.509 28.2174 139.418 28.1133C139.314 28.0091 139.242 27.8984 139.203 27.7812C139.164 27.6641 139.158 27.5534 139.184 27.4492C139.197 27.3451 139.249 27.2669 139.34 27.2148L141.566 26.375L141.527 20.8477C141.566 20.6784 141.651 20.5547 141.781 20.4766C141.911 20.3984 142.042 20.3659 142.172 20.3789C142.315 20.3789 142.445 20.4245 142.562 20.5156C142.68 20.5938 142.758 20.6979 142.797 20.8281C142.771 21.2318 142.751 21.6615 142.738 22.1172C142.725 22.5599 142.712 23.0091 142.699 23.4648C142.699 23.9076 142.706 24.3438 142.719 24.7734C142.732 25.1901 142.758 25.5742 142.797 25.9258L145.824 24.6953C146.007 24.6432 146.15 24.6628 146.254 24.7539C146.358 24.832 146.423 24.9427 146.449 25.0859C146.488 25.2161 146.482 25.3464 146.43 25.4766C146.378 25.6068 146.286 25.6979 146.156 25.75L142.797 27.2734C142.797 27.4036 142.803 27.7161 142.816 28.2109C142.829 28.6927 142.842 29.2656 142.855 29.9297C142.868 30.5938 142.882 31.3034 142.895 32.0586C142.908 32.8138 142.914 33.5234 142.914 34.1875C142.927 34.8516 142.934 35.431 142.934 35.9258C142.947 36.4076 142.953 36.7135 142.953 36.8438C142.927 37.2734 142.803 37.4883 142.582 37.4883C142.361 37.4883 142.12 37.3841 141.859 37.1758L141.566 27.7227ZM147.602 36.9219C147.081 36.8568 146.651 36.6484 146.312 36.2969C145.987 35.9453 145.727 35.5156 145.531 35.0078C145.336 34.5 145.206 33.9466 145.141 33.3477C145.089 32.7357 145.076 32.1367 145.102 31.5508C145.141 30.6523 145.303 29.793 145.59 28.9727C145.889 28.1523 146.254 27.4427 146.684 26.8438C147.126 26.2318 147.608 25.763 148.129 25.4375C148.663 25.099 149.184 24.9688 149.691 25.0469C150.225 25.125 150.655 25.3789 150.98 25.8086C151.319 26.2383 151.579 26.7656 151.762 27.3906C151.944 28.0156 152.055 28.6992 152.094 29.4414C152.133 30.1706 152.126 30.8737 152.074 31.5508C152.009 32.319 151.84 33.0352 151.566 33.6992C151.293 34.3633 150.948 34.9362 150.531 35.418C150.128 35.8997 149.665 36.2773 149.145 36.5508C148.637 36.8112 148.122 36.9349 147.602 36.9219ZM149.496 26.1602C149.066 26.1081 148.663 26.2448 148.285 26.5703C147.921 26.8828 147.589 27.306 147.289 27.8398C147.003 28.3607 146.762 28.9596 146.566 29.6367C146.371 30.3008 146.241 30.9583 146.176 31.6094C146.124 32.0781 146.104 32.5599 146.117 33.0547C146.13 33.5495 146.189 33.9987 146.293 34.4023C146.41 34.806 146.586 35.138 146.82 35.3984C147.068 35.6458 147.393 35.7695 147.797 35.7695C148.122 35.7826 148.461 35.6719 148.812 35.4375C149.177 35.2031 149.516 34.8906 149.828 34.5C150.141 34.0964 150.414 33.6406 150.648 33.1328C150.896 32.625 151.059 32.1042 151.137 31.5703C151.228 31.0104 151.247 30.4375 151.195 29.8516C151.156 29.2526 151.059 28.6992 150.902 28.1914C150.759 27.6836 150.564 27.2474 150.316 26.8828C150.082 26.5052 149.809 26.2643 149.496 26.1602ZM153.012 36.6289C152.973 34.832 152.94 33.3086 152.914 32.0586C152.888 30.8086 152.868 29.7734 152.855 28.9531C152.842 28.1328 152.829 27.4948 152.816 27.0391C152.816 26.5703 152.81 26.2253 152.797 26.0039C152.797 25.7826 152.797 25.6523 152.797 25.6133C152.797 25.5612 152.797 25.5286 152.797 25.5156C152.81 25.3984 152.868 25.3008 152.973 25.2227C153.077 25.1445 153.188 25.099 153.305 25.0859C153.435 25.0599 153.559 25.0729 153.676 25.125C153.793 25.1771 153.878 25.2617 153.93 25.3789L153.988 29.8711C154.184 28.9727 154.496 28.224 154.926 27.625C155.368 27.026 155.863 26.5573 156.41 26.2188C156.957 25.8672 157.523 25.6393 158.109 25.5352C158.708 25.431 159.262 25.4245 159.77 25.5156C159.939 25.5547 160.062 25.6263 160.141 25.7305C160.232 25.8346 160.277 25.9518 160.277 26.082C160.29 26.1992 160.258 26.3164 160.18 26.4336C160.115 26.5378 160.023 26.6159 159.906 26.668C159.32 26.6289 158.767 26.681 158.246 26.8242C157.738 26.9544 157.27 27.1562 156.84 27.4297C156.423 27.6901 156.052 28.0026 155.727 28.3672C155.414 28.7318 155.167 29.1159 154.984 29.5195C154.711 30.1055 154.522 30.724 154.418 31.375C154.327 32.013 154.268 32.651 154.242 33.2891C154.229 33.9271 154.229 34.5326 154.242 35.1055C154.268 35.6784 154.275 36.1797 154.262 36.6094C154.249 36.7526 154.184 36.8633 154.066 36.9414C153.962 37.0065 153.839 37.0391 153.695 37.0391C153.565 37.0521 153.428 37.026 153.285 36.9609C153.155 36.8828 153.064 36.7721 153.012 36.6289ZM164.73 37.0195L160.414 27.1953C160.31 27.0391 160.284 26.8828 160.336 26.7266C160.388 26.5573 160.479 26.4271 160.609 26.3359C160.74 26.2448 160.889 26.2122 161.059 26.2383C161.241 26.2513 161.404 26.3555 161.547 26.5508L165.141 35.1445L166.84 25.4375C166.918 25.3984 167.009 25.3659 167.113 25.3398C167.23 25.3138 167.341 25.3073 167.445 25.3203C167.562 25.3333 167.667 25.3724 167.758 25.4375C167.849 25.5026 167.908 25.6068 167.934 25.75C167.868 26.2708 167.771 26.9349 167.641 27.7422C167.51 28.5495 167.367 29.3828 167.211 30.2422C167.055 31.0885 166.898 31.9023 166.742 32.6836C166.599 33.4518 166.488 34.0638 166.41 34.5195C166.358 34.793 166.293 35.1641 166.215 35.6328C166.137 36.0885 166.046 36.5898 165.941 37.1367C165.85 37.6836 165.746 38.25 165.629 38.8359C165.525 39.4349 165.421 40.0078 165.316 40.5547C165.225 41.1016 165.128 41.5964 165.023 42.0391C164.932 42.4948 164.854 42.8594 164.789 43.1328C164.763 43.2891 164.685 43.4062 164.555 43.4844C164.424 43.5625 164.281 43.5951 164.125 43.582C163.969 43.569 163.819 43.5169 163.676 43.4258C163.546 43.3346 163.474 43.2044 163.461 43.0352L164.73 37.0195Z" fill="black"/>
</svg>
