<svg width="238" height="283" viewBox="0 0 238 283" fill="none" xmlns="http://www.w3.org/2000/svg">
<path d="M129.706 75.694C133.294 73.9775 133.414 76.2723 133.026 77.6343C132.094 80.903 128.408 85.2341 126.681 86.9911C119.145 94.658 115.518 94.4812 114.646 93.4344C114.249 92.871 114.59 91.557 118.178 89.8405C121.248 88.6511 123.38 89.3827 128.369 94.4591C130.666 96.9563 137.164 104.366 139.803 112.801C140.527 116.093 140.314 121.467 136.973 114.713" stroke="black" stroke-linecap="round"/>
<path d="M131.942 99.5016C134.686 98.553 137.111 97.1656 138.578 94.534C139.279 93.2773 139.811 91.9449 140.15 90.5414" stroke="black" stroke-linecap="round"/>
<path d="M163.709 108.592C166.922 110.875 165.027 112.156 163.678 112.511C160.441 113.362 154.954 112.33 152.615 111.708C142.41 108.991 140.789 105.704 141.254 104.4C141.54 103.762 142.825 103.39 146.038 105.673C148.549 107.77 148.967 110.023 147.082 117.018C146.078 120.32 142.943 129.838 137.051 136.48C134.602 138.803 129.923 141.365 134.041 134.965" stroke="black" stroke-linecap="round"/>
<path d="M144.535 122.747C146.682 124.68 149.047 126.106 152.004 126.053C153.416 126.027 154.81 125.814 156.17 125.394" stroke="black" stroke-linecap="round"/>
<path d="M151.311 153.909C150.936 157.908 148.921 156.894 147.96 155.887C145.654 153.47 143.854 148.107 143.242 145.727C140.572 135.344 142.579 132.234 143.917 131.976C144.599 131.902 145.543 132.844 145.168 136.844C144.61 140.129 142.896 141.651 136.021 143.569C132.72 144.374 123.087 146.483 114.556 144.69C111.383 143.721 106.918 140.909 114.376 141.262" stroke="black" stroke-linecap="round"/>
<path d="M129.9 144.258C129.303 147.139 129.243 149.953 130.732 152.531C131.444 153.762 132.306 154.881 133.327 155.865" stroke="black" stroke-linecap="round"/>
<path d="M106.516 167.963C102.929 169.68 102.808 167.385 103.197 166.023C104.128 162.754 107.815 158.423 109.542 156.666C117.077 148.999 120.705 149.176 121.577 150.223C121.974 150.786 121.632 152.1 118.045 153.817C114.975 155.006 112.843 154.275 107.854 149.198C105.556 146.701 99.0586 139.292 96.4199 130.857C95.6959 127.564 95.9089 122.191 99.2499 128.944" stroke="black" stroke-linecap="round"/>
<path d="M104.28 144.157C101.536 145.105 99.1111 146.493 97.6437 149.124C96.943 150.381 96.4109 151.713 96.0724 153.117" stroke="black" stroke-linecap="round"/>
<path d="M83.5694 89.5645C83.9443 85.5649 85.9594 86.5792 86.9201 87.5862C89.2257 90.0032 91.0259 95.3665 91.6378 97.7461C94.3077 108.13 92.3006 111.24 90.9634 111.497C90.2808 111.572 89.3368 110.629 89.7118 106.63C90.2703 103.344 91.9843 101.823 98.859 99.9042C102.161 99.0989 111.793 96.9906 120.324 98.7834C123.497 99.7528 127.963 102.564 120.504 102.211" stroke="black" stroke-linecap="round"/>
<path d="M104.981 99.2161C105.577 96.3349 105.637 93.521 104.148 90.9431C103.437 89.712 102.575 88.5927 101.553 87.6092" stroke="black" stroke-linecap="round"/>
<path d="M72.7777 136.517C69.565 134.234 71.4596 132.953 72.8086 132.598C76.046 131.747 81.5329 132.779 83.8716 133.401C94.0771 136.118 95.6976 139.405 95.2321 140.709C94.9462 141.347 93.6611 141.719 90.4483 139.436C87.9372 137.339 87.5191 135.086 89.4045 128.092C90.4086 124.789 93.5439 115.271 99.4359 108.629C101.885 106.306 106.563 103.744 102.446 110.144" stroke="black" stroke-linecap="round"/>
<path d="M91.9516 122.362C89.8044 120.429 87.4396 119.003 84.483 119.057C83.0712 119.082 81.6772 119.295 80.3172 119.715" stroke="black" stroke-linecap="round"/>
<path d="M118.529 59.2679C128.267 54.8105 154.194 49.1435 179.996 62.135C183.166 71.9906 187.366 97.1493 178.807 118.939M118.529 59.2679C82.1956 72.6894 65.6602 101.614 57.4375 121.426M118.529 59.2679C94.6296 52.1897 70.2796 56.035 61.092 58.8425C55.8744 72.8717 51.0862 103.361 57.4375 121.426M118.529 59.2679C133.613 61.9072 166.786 77.5365 178.807 118.939M178.807 118.939C175.471 133.779 158.905 167.312 119.322 182.732M178.807 118.939C182.513 129.34 187.78 156.247 179.203 180.671C171.89 185.386 149.676 192.399 119.322 182.732M119.322 182.732C109.591 186.092 84.1571 190.713 60.2663 182.317C55.1918 174.944 49.8753 163.458 57.4375 121.426M119.322 182.732C80.5575 172.464 63.7999 137.844 57.4375 121.426" stroke="black" stroke-linecap="round"/>
<path d="M90.2399 55.3481C96.749 49.8155 111.876 37.9126 120.313 34.5617C125.959 36.992 138.693 44.3121 144.452 54.1498M183.837 92.5644C188.666 96.3721 199.435 107.108 203.882 119.589C202.778 123.438 197.311 134.45 184.278 147.711M143.561 187.503C141.928 189.709 134.763 196.453 119.168 205.78C114.049 204.993 101.406 200.306 91.7812 187.861M54.0142 149.435C49.7286 145.075 39.7242 132.907 33.9914 119.118C35.0922 115.818 40.5497 106.232 53.5739 94.2888" stroke="black" stroke-linecap="round"/>
<path d="M33.9375 233.25C33.9375 233 34.0104 232.823 34.1562 232.719C34.3021 232.615 34.4792 232.542 34.6875 232.5C34.8958 232.458 35.1146 232.438 35.3438 232.438C35.5729 232.438 35.7708 232.427 35.9375 232.406V235.719C37.4583 235.26 38.7188 234.854 39.7188 234.5C40.7188 234.125 41.625 233.802 42.4375 233.531C43.25 233.24 44.0417 232.979 44.8125 232.75C45.5833 232.5 46.5 232.26 47.5625 232.031C47.7292 232.031 47.8438 232.115 47.9062 232.281C47.9688 232.448 48 232.594 48 232.719C48 232.99 47.8542 233.208 47.5625 233.375L36.0625 237.594L36.5938 247.719C38.3021 246.76 39.7396 245.948 40.9062 245.281C42.0938 244.615 43.0729 244.062 43.8438 243.625C44.6146 243.188 45.2083 242.854 45.625 242.625C46.0625 242.396 46.3854 242.229 46.5938 242.125C46.8021 242.021 46.9271 241.958 46.9688 241.938C47.0104 241.917 47.0417 241.906 47.0625 241.906C47.25 241.844 47.375 241.854 47.4375 241.938C47.5 242 47.5312 242.104 47.5312 242.25C47.5312 242.396 47.5 242.562 47.4375 242.75C47.3958 242.938 47.3438 243.115 47.2812 243.281C47.1771 243.427 46.8333 243.677 46.25 244.031C45.6875 244.385 45.0104 244.792 44.2188 245.25C43.4271 245.708 42.5833 246.198 41.6875 246.719C40.8125 247.219 39.9896 247.688 39.2188 248.125C38.4688 248.562 37.8438 248.948 37.3438 249.281C36.8438 249.615 36.5938 249.833 36.5938 249.938L36.6875 258.094C36.6875 258.385 36.6354 258.615 36.5312 258.781C36.4271 258.948 36.2604 259.031 36.0312 259.031C35.7812 259.031 35.5521 258.708 35.3438 258.062C35.1562 257.396 34.9896 256.521 34.8438 255.438C34.6979 254.333 34.5729 253.073 34.4688 251.656C34.3646 250.219 34.2812 248.74 34.2188 247.219C34.1562 245.698 34.1042 244.188 34.0625 242.688C34.0208 241.167 33.9896 239.771 33.9688 238.5C33.9479 237.229 33.9375 236.125 33.9375 235.188C33.9375 234.25 33.9375 233.604 33.9375 233.25ZM51.2188 258.875C50.3854 258.771 49.6979 258.438 49.1562 257.875C48.6354 257.312 48.2188 256.625 47.9062 255.812C47.5938 255 47.3854 254.115 47.2812 253.156C47.1979 252.177 47.1771 251.219 47.2188 250.281C47.2812 248.844 47.5417 247.469 48 246.156C48.4792 244.844 49.0625 243.708 49.75 242.75C50.4583 241.771 51.2292 241.021 52.0625 240.5C52.9167 239.958 53.75 239.75 54.5625 239.875C55.4167 240 56.1042 240.406 56.625 241.094C57.1667 241.781 57.5833 242.625 57.875 243.625C58.1667 244.625 58.3438 245.719 58.4062 246.906C58.4688 248.073 58.4583 249.198 58.375 250.281C58.2708 251.51 58 252.656 57.5625 253.719C57.125 254.781 56.5729 255.698 55.9062 256.469C55.2604 257.24 54.5208 257.844 53.6875 258.281C52.875 258.698 52.0521 258.896 51.2188 258.875ZM54.25 241.656C53.5625 241.573 52.9167 241.792 52.3125 242.312C51.7292 242.812 51.1979 243.49 50.7188 244.344C50.2604 245.177 49.875 246.135 49.5625 247.219C49.25 248.281 49.0417 249.333 48.9375 250.375C48.8542 251.125 48.8229 251.896 48.8438 252.688C48.8646 253.479 48.9583 254.198 49.125 254.844C49.3125 255.49 49.5938 256.021 49.9688 256.438C50.3646 256.833 50.8854 257.031 51.5312 257.031C52.0521 257.052 52.5938 256.875 53.1562 256.5C53.7396 256.125 54.2812 255.625 54.7812 255C55.2812 254.354 55.7188 253.625 56.0938 252.812C56.4896 252 56.75 251.167 56.875 250.312C57.0208 249.417 57.0521 248.5 56.9688 247.562C56.9062 246.604 56.75 245.719 56.5 244.906C56.2708 244.094 55.9583 243.396 55.5625 242.812C55.1875 242.208 54.75 241.823 54.25 241.656ZM59.875 258.406C59.8125 255.531 59.7604 253.094 59.7188 251.094C59.6771 249.094 59.6458 247.438 59.625 246.125C59.6042 244.812 59.5833 243.792 59.5625 243.062C59.5625 242.312 59.5521 241.76 59.5312 241.406C59.5312 241.052 59.5312 240.844 59.5312 240.781C59.5312 240.698 59.5312 240.646 59.5312 240.625C59.5521 240.438 59.6458 240.281 59.8125 240.156C59.9792 240.031 60.1562 239.958 60.3438 239.938C60.5521 239.896 60.75 239.917 60.9375 240C61.125 240.083 61.2604 240.219 61.3438 240.406L61.4375 247.594C61.75 246.156 62.25 244.958 62.9375 244C63.6458 243.042 64.4375 242.292 65.3125 241.75C66.1875 241.188 67.0938 240.823 68.0312 240.656C68.9896 240.49 69.875 240.479 70.6875 240.625C70.9583 240.688 71.1562 240.802 71.2812 240.969C71.4271 241.135 71.5 241.323 71.5 241.531C71.5208 241.719 71.4688 241.906 71.3438 242.094C71.2396 242.26 71.0938 242.385 70.9062 242.469C69.9688 242.406 69.0833 242.49 68.25 242.719C67.4375 242.927 66.6875 243.25 66 243.688C65.3333 244.104 64.7396 244.604 64.2188 245.188C63.7188 245.771 63.3229 246.385 63.0312 247.031C62.5938 247.969 62.2917 248.958 62.125 250C61.9792 251.021 61.8854 252.042 61.8438 253.062C61.8229 254.083 61.8229 255.052 61.8438 255.969C61.8854 256.885 61.8958 257.688 61.875 258.375C61.8542 258.604 61.75 258.781 61.5625 258.906C61.3958 259.01 61.1979 259.062 60.9688 259.062C60.7604 259.083 60.5417 259.042 60.3125 258.938C60.1042 258.812 59.9583 258.635 59.875 258.406ZM72.2188 250.656C72.0729 250.781 71.8125 250.833 71.4375 250.812C71.0833 250.771 70.75 250.688 70.4375 250.562C70.1458 250.438 69.9479 250.271 69.8438 250.062C69.7396 249.833 69.8646 249.573 70.2188 249.281C70.3646 249.156 70.5208 249.073 70.6875 249.031C70.875 248.969 71.0521 248.917 71.2188 248.875C71.4062 248.812 71.5521 248.729 71.6562 248.625C71.7812 248.521 71.8542 248.354 71.875 248.125C71.8958 247.188 71.9688 246.229 72.0938 245.25C72.2396 244.271 72.5 243.396 72.875 242.625C73.25 241.854 73.7812 241.24 74.4688 240.781C75.1771 240.323 76.1042 240.146 77.25 240.25C77.6667 240.25 78.1354 240.354 78.6562 240.562C79.1771 240.75 79.6771 241.01 80.1562 241.344C80.6354 241.656 81.0521 242.042 81.4062 242.5C81.7604 242.938 81.9792 243.417 82.0625 243.938C82.2083 244.146 82.125 244.406 81.8125 244.719C81.5 245.031 81.0625 245.385 80.5 245.781C79.9375 246.156 79.3021 246.542 78.5938 246.938C77.8854 247.333 77.1979 247.708 76.5312 248.062C75.8854 248.417 75.3125 248.729 74.8125 249C74.3125 249.271 73.9896 249.458 73.8438 249.562C73.9688 250.375 74.1042 251.229 74.25 252.125C74.3958 253.021 74.6042 253.844 74.875 254.594C75.1458 255.344 75.4792 255.969 75.875 256.469C76.2917 256.948 76.8125 257.188 77.4375 257.188C78.3542 257.25 79.1354 257.115 79.7812 256.781C80.4479 256.448 81 256.01 81.4375 255.469C81.875 254.927 82.2188 254.333 82.4688 253.688C82.7396 253.042 82.9375 252.427 83.0625 251.844C83.2083 251.26 83.3021 250.771 83.3438 250.375C83.4062 249.958 83.4583 249.729 83.5 249.688C83.7292 249.562 83.9896 249.562 84.2812 249.688C84.5729 249.792 84.7396 250.094 84.7812 250.594C84.8021 251.406 84.625 252.333 84.25 253.375C83.875 254.417 83.3542 255.375 82.6875 256.25C82.0417 257.125 81.2604 257.833 80.3438 258.375C79.4479 258.896 78.4896 259.073 77.4688 258.906C76.4062 258.885 75.5625 258.583 74.9375 258C74.3125 257.396 73.8125 256.677 73.4375 255.844C73.0833 254.99 72.8229 254.094 72.6562 253.156C72.4896 252.219 72.3438 251.385 72.2188 250.656ZM80.4062 243.938C79.7396 243.021 79.0625 242.438 78.375 242.188C77.6875 241.938 76.9792 241.865 76.25 241.969C75.8125 242.031 75.4271 242.24 75.0938 242.594C74.7604 242.927 74.4896 243.365 74.2812 243.906C74.0729 244.427 73.9271 245.021 73.8438 245.688C73.7604 246.333 73.75 247 73.8125 247.688L80.4062 243.938ZM83.9375 240.875C83.9583 240.646 84.0312 240.469 84.1562 240.344C84.2812 240.198 84.4271 240.104 84.5938 240.062C84.7604 240.021 84.9375 240.021 85.125 240.062C85.3125 240.104 85.4896 240.188 85.6562 240.312L90.4375 255.406C91.4792 252.302 92.2812 249.812 92.8438 247.938C93.4062 246.042 93.8125 244.583 94.0625 243.562C94.3333 242.521 94.4896 241.823 94.5312 241.469C94.5938 241.094 94.6354 240.885 94.6562 240.844C94.8021 240.385 94.9896 240.104 95.2188 240C95.4688 239.896 95.6979 239.906 95.9062 240.031C96.1146 240.156 96.2812 240.354 96.4062 240.625C96.5521 240.875 96.5938 241.125 96.5312 241.375L91.4375 258.844C91.375 258.969 91.25 259.052 91.0625 259.094C90.875 259.156 90.6771 259.177 90.4688 259.156C90.2812 259.156 90.0938 259.115 89.9062 259.031C89.7396 258.969 89.625 258.885 89.5625 258.781L83.9375 240.875ZM98.875 250.656C98.7292 250.781 98.4688 250.833 98.0938 250.812C97.7396 250.771 97.4062 250.688 97.0938 250.562C96.8021 250.438 96.6042 250.271 96.5 250.062C96.3958 249.833 96.5208 249.573 96.875 249.281C97.0208 249.156 97.1771 249.073 97.3438 249.031C97.5312 248.969 97.7083 248.917 97.875 248.875C98.0625 248.812 98.2083 248.729 98.3125 248.625C98.4375 248.521 98.5104 248.354 98.5312 248.125C98.5521 247.188 98.625 246.229 98.75 245.25C98.8958 244.271 99.1562 243.396 99.5312 242.625C99.9062 241.854 100.438 241.24 101.125 240.781C101.833 240.323 102.76 240.146 103.906 240.25C104.323 240.25 104.792 240.354 105.312 240.562C105.833 240.75 106.333 241.01 106.812 241.344C107.292 241.656 107.708 242.042 108.062 242.5C108.417 242.938 108.635 243.417 108.719 243.938C108.865 244.146 108.781 244.406 108.469 244.719C108.156 245.031 107.719 245.385 107.156 245.781C106.594 246.156 105.958 246.542 105.25 246.938C104.542 247.333 103.854 247.708 103.188 248.062C102.542 248.417 101.969 248.729 101.469 249C100.969 249.271 100.646 249.458 100.5 249.562C100.625 250.375 100.76 251.229 100.906 252.125C101.052 253.021 101.26 253.844 101.531 254.594C101.802 255.344 102.135 255.969 102.531 256.469C102.948 256.948 103.469 257.188 104.094 257.188C105.01 257.25 105.792 257.115 106.438 256.781C107.104 256.448 107.656 256.01 108.094 255.469C108.531 254.927 108.875 254.333 109.125 253.688C109.396 253.042 109.594 252.427 109.719 251.844C109.865 251.26 109.958 250.771 110 250.375C110.062 249.958 110.115 249.729 110.156 249.688C110.385 249.562 110.646 249.562 110.938 249.688C111.229 249.792 111.396 250.094 111.438 250.594C111.458 251.406 111.281 252.333 110.906 253.375C110.531 254.417 110.01 255.375 109.344 256.25C108.698 257.125 107.917 257.833 107 258.375C106.104 258.896 105.146 259.073 104.125 258.906C103.062 258.885 102.219 258.583 101.594 258C100.969 257.396 100.469 256.677 100.094 255.844C99.7396 254.99 99.4792 254.094 99.3125 253.156C99.1458 252.219 99 251.385 98.875 250.656ZM107.062 243.938C106.396 243.021 105.719 242.438 105.031 242.188C104.344 241.938 103.635 241.865 102.906 241.969C102.469 242.031 102.083 242.24 101.75 242.594C101.417 242.927 101.146 243.365 100.938 243.906C100.729 244.427 100.583 245.021 100.5 245.688C100.417 246.333 100.406 247 100.469 247.688L107.062 243.938ZM112.719 258.406C112.656 255.531 112.604 253.094 112.562 251.094C112.521 249.094 112.49 247.438 112.469 246.125C112.448 244.812 112.427 243.792 112.406 243.062C112.406 242.312 112.396 241.76 112.375 241.406C112.375 241.052 112.375 240.844 112.375 240.781C112.375 240.698 112.375 240.646 112.375 240.625C112.396 240.438 112.49 240.281 112.656 240.156C112.823 240.031 113 239.958 113.188 239.938C113.396 239.896 113.594 239.917 113.781 240C113.969 240.083 114.104 240.219 114.188 240.406L114.281 247.594C114.594 246.156 115.094 244.958 115.781 244C116.49 243.042 117.281 242.292 118.156 241.75C119.031 241.188 119.938 240.823 120.875 240.656C121.833 240.49 122.719 240.479 123.531 240.625C123.802 240.688 124 240.802 124.125 240.969C124.271 241.135 124.344 241.323 124.344 241.531C124.365 241.719 124.312 241.906 124.188 242.094C124.083 242.26 123.938 242.385 123.75 242.469C122.812 242.406 121.927 242.49 121.094 242.719C120.281 242.927 119.531 243.25 118.844 243.688C118.177 244.104 117.583 244.604 117.062 245.188C116.562 245.771 116.167 246.385 115.875 247.031C115.438 247.969 115.135 248.958 114.969 250C114.823 251.021 114.729 252.042 114.688 253.062C114.667 254.083 114.667 255.052 114.688 255.969C114.729 256.885 114.74 257.688 114.719 258.375C114.698 258.604 114.594 258.781 114.406 258.906C114.24 259.01 114.042 259.062 113.812 259.062C113.604 259.083 113.385 259.042 113.156 258.938C112.948 258.812 112.802 258.635 112.719 258.406ZM143.938 258.062C143.958 257.938 144.25 257.781 144.812 257.594C145.396 257.406 146.115 257.188 146.969 256.938C147.823 256.667 148.771 256.365 149.812 256.031C150.854 255.677 151.854 255.281 152.812 254.844C153.792 254.406 154.667 253.927 155.438 253.406C156.208 252.865 156.771 252.271 157.125 251.625C157.125 251.292 156.896 251.031 156.438 250.844C155.979 250.656 155.375 250.5 154.625 250.375C153.875 250.25 153.021 250.146 152.062 250.062C151.104 249.979 150.115 249.865 149.094 249.719C148.094 249.573 147.115 249.385 146.156 249.156C145.198 248.927 144.344 248.615 143.594 248.219C142.844 247.802 142.24 247.292 141.781 246.688C141.323 246.062 141.094 245.292 141.094 244.375C141.094 243.479 141.292 242.573 141.688 241.656C142.104 240.719 142.646 239.812 143.312 238.938C143.979 238.062 144.74 237.24 145.594 236.469C146.469 235.698 147.375 235.021 148.312 234.438C149.25 233.854 150.177 233.396 151.094 233.062C152.01 232.729 152.865 232.562 153.656 232.562C153.865 232.562 154.083 232.562 154.312 232.562C154.542 232.542 154.74 232.552 154.906 232.594C155.094 232.635 155.24 232.729 155.344 232.875C155.469 233 155.531 233.198 155.531 233.469C155.531 234.135 155.312 234.615 154.875 234.906C154.438 235.198 153.906 235.344 153.281 235.344L151.938 234.906C151.417 234.906 150.823 235.062 150.156 235.375C149.51 235.667 148.854 236.073 148.188 236.594C147.521 237.094 146.865 237.677 146.219 238.344C145.594 238.99 145.031 239.667 144.531 240.375C144.052 241.062 143.656 241.76 143.344 242.469C143.052 243.156 142.906 243.781 142.906 244.344C142.906 245.052 143.135 245.635 143.594 246.094C144.052 246.531 144.656 246.885 145.406 247.156C146.156 247.427 147.01 247.635 147.969 247.781C148.948 247.906 149.938 248.021 150.938 248.125C151.938 248.229 152.917 248.344 153.875 248.469C154.854 248.594 155.719 248.771 156.469 249C157.219 249.208 157.823 249.51 158.281 249.906C158.74 250.281 158.969 250.792 158.969 251.438C158.969 252.062 158.719 252.688 158.219 253.312C157.719 253.938 157.062 254.542 156.25 255.125C155.438 255.688 154.5 256.219 153.438 256.719C152.396 257.198 151.344 257.615 150.281 257.969C149.219 258.302 148.177 258.562 147.156 258.75C146.156 258.938 145.292 259.021 144.562 259C144.354 259 144.177 258.927 144.031 258.781C143.885 258.635 143.854 258.396 143.938 258.062ZM161.906 244.156L159.031 245.125C158.802 245.062 158.615 244.948 158.469 244.781C158.302 244.615 158.188 244.438 158.125 244.25C158.062 244.062 158.052 243.885 158.094 243.719C158.115 243.552 158.198 243.427 158.344 243.344L161.906 242L161.844 233.156C161.906 232.885 162.042 232.688 162.25 232.562C162.458 232.438 162.667 232.385 162.875 232.406C163.104 232.406 163.312 232.479 163.5 232.625C163.688 232.75 163.812 232.917 163.875 233.125C163.833 233.771 163.802 234.458 163.781 235.188C163.76 235.896 163.74 236.615 163.719 237.344C163.719 238.052 163.729 238.75 163.75 239.438C163.771 240.104 163.812 240.719 163.875 241.281L168.719 239.312C169.01 239.229 169.24 239.26 169.406 239.406C169.573 239.531 169.677 239.708 169.719 239.938C169.781 240.146 169.771 240.354 169.688 240.562C169.604 240.771 169.458 240.917 169.25 241L163.875 243.438C163.875 243.646 163.885 244.146 163.906 244.938C163.927 245.708 163.948 246.625 163.969 247.688C163.99 248.75 164.01 249.885 164.031 251.094C164.052 252.302 164.062 253.438 164.062 254.5C164.083 255.562 164.094 256.49 164.094 257.281C164.115 258.052 164.125 258.542 164.125 258.75C164.083 259.438 163.885 259.781 163.531 259.781C163.177 259.781 162.792 259.615 162.375 259.281L161.906 244.156ZM171.562 258.875C170.729 258.771 170.042 258.438 169.5 257.875C168.979 257.312 168.562 256.625 168.25 255.812C167.938 255 167.729 254.115 167.625 253.156C167.542 252.177 167.521 251.219 167.562 250.281C167.625 248.844 167.885 247.469 168.344 246.156C168.823 244.844 169.406 243.708 170.094 242.75C170.802 241.771 171.573 241.021 172.406 240.5C173.26 239.958 174.094 239.75 174.906 239.875C175.76 240 176.448 240.406 176.969 241.094C177.51 241.781 177.927 242.625 178.219 243.625C178.51 244.625 178.688 245.719 178.75 246.906C178.812 248.073 178.802 249.198 178.719 250.281C178.615 251.51 178.344 252.656 177.906 253.719C177.469 254.781 176.917 255.698 176.25 256.469C175.604 257.24 174.865 257.844 174.031 258.281C173.219 258.698 172.396 258.896 171.562 258.875ZM174.594 241.656C173.906 241.573 173.26 241.792 172.656 242.312C172.073 242.812 171.542 243.49 171.062 244.344C170.604 245.177 170.219 246.135 169.906 247.219C169.594 248.281 169.385 249.333 169.281 250.375C169.198 251.125 169.167 251.896 169.188 252.688C169.208 253.479 169.302 254.198 169.469 254.844C169.656 255.49 169.938 256.021 170.312 256.438C170.708 256.833 171.229 257.031 171.875 257.031C172.396 257.052 172.938 256.875 173.5 256.5C174.083 256.125 174.625 255.625 175.125 255C175.625 254.354 176.062 253.625 176.438 252.812C176.833 252 177.094 251.167 177.219 250.312C177.365 249.417 177.396 248.5 177.312 247.562C177.25 246.604 177.094 245.719 176.844 244.906C176.615 244.094 176.302 243.396 175.906 242.812C175.531 242.208 175.094 241.823 174.594 241.656ZM180.219 258.406C180.156 255.531 180.104 253.094 180.062 251.094C180.021 249.094 179.99 247.438 179.969 246.125C179.948 244.812 179.927 243.792 179.906 243.062C179.906 242.312 179.896 241.76 179.875 241.406C179.875 241.052 179.875 240.844 179.875 240.781C179.875 240.698 179.875 240.646 179.875 240.625C179.896 240.438 179.99 240.281 180.156 240.156C180.323 240.031 180.5 239.958 180.688 239.938C180.896 239.896 181.094 239.917 181.281 240C181.469 240.083 181.604 240.219 181.688 240.406L181.781 247.594C182.094 246.156 182.594 244.958 183.281 244C183.99 243.042 184.781 242.292 185.656 241.75C186.531 241.188 187.438 240.823 188.375 240.656C189.333 240.49 190.219 240.479 191.031 240.625C191.302 240.688 191.5 240.802 191.625 240.969C191.771 241.135 191.844 241.323 191.844 241.531C191.865 241.719 191.812 241.906 191.688 242.094C191.583 242.26 191.438 242.385 191.25 242.469C190.312 242.406 189.427 242.49 188.594 242.719C187.781 242.927 187.031 243.25 186.344 243.688C185.677 244.104 185.083 244.604 184.562 245.188C184.062 245.771 183.667 246.385 183.375 247.031C182.938 247.969 182.635 248.958 182.469 250C182.323 251.021 182.229 252.042 182.188 253.062C182.167 254.083 182.167 255.052 182.188 255.969C182.229 256.885 182.24 257.688 182.219 258.375C182.198 258.604 182.094 258.781 181.906 258.906C181.74 259.01 181.542 259.062 181.312 259.062C181.104 259.083 180.885 259.042 180.656 258.938C180.448 258.812 180.302 258.635 180.219 258.406ZM198.969 259.031L192.062 243.312C191.896 243.062 191.854 242.812 191.938 242.562C192.021 242.292 192.167 242.083 192.375 241.938C192.583 241.792 192.823 241.74 193.094 241.781C193.385 241.802 193.646 241.969 193.875 242.281L199.625 256.031L202.344 240.5C202.469 240.438 202.615 240.385 202.781 240.344C202.969 240.302 203.146 240.292 203.312 240.312C203.5 240.333 203.667 240.396 203.812 240.5C203.958 240.604 204.052 240.771 204.094 241C203.99 241.833 203.833 242.896 203.625 244.188C203.417 245.479 203.188 246.812 202.938 248.188C202.688 249.542 202.438 250.844 202.188 252.094C201.958 253.323 201.781 254.302 201.656 255.031C201.573 255.469 201.469 256.062 201.344 256.812C201.219 257.542 201.073 258.344 200.906 259.219C200.76 260.094 200.594 261 200.406 261.938C200.24 262.896 200.073 263.812 199.906 264.688C199.76 265.562 199.604 266.354 199.438 267.062C199.292 267.792 199.167 268.375 199.062 268.812C199.021 269.062 198.896 269.25 198.688 269.375C198.479 269.5 198.25 269.552 198 269.531C197.75 269.51 197.51 269.427 197.281 269.281C197.073 269.135 196.958 268.927 196.938 268.656L198.969 259.031Z" fill="black"/>
</svg>
