<svg width="36" height="153" viewBox="0 0 36 153" fill="none" xmlns="http://www.w3.org/2000/svg">
<path d="M10.728 4.272C10.728 2.96 11.128 1.648 11.656 0.831999L14.12 0.927999L14.12 1.648L11.368 2.224L11.736 1.424L12.28 1.312C11.528 2.352 11.32 3.04 11.32 4.144C11.32 5.856 12.104 6.96 13.592 6.96C14.728 6.96 15.336 6.416 16.024 4.752L16.328 4.064C17.16 2.112 18.184 1.088 19.864 1.088C21.896 1.088 22.984 2.768 22.984 4.928C22.984 6.176 22.648 7.088 22.088 7.904L19.752 7.808L19.752 7.072L22.392 6.512L22.008 7.344L21.464 7.408C22.136 6.576 22.376 5.984 22.376 5.072C22.376 3.6 21.656 2.544 20.296 2.544C19.112 2.544 18.456 3.28 17.944 4.496L17.624 5.248C16.6 7.664 15.688 8.448 14.024 8.448C12.008 8.448 10.728 6.832 10.728 4.272ZM10.728 18.0012C10.728 14.5452 12.952 12.0492 16.792 12.0492C20.648 12.0492 22.984 14.6252 22.984 18.0012C22.984 19.3452 22.68 20.3213 22.088 21.3613L19.448 21.3772L19.448 20.6253L22.344 20.0012L22.04 20.8972L21.496 20.8972C22.136 20.0172 22.392 19.2652 22.392 18.2572C22.392 15.6972 20.456 13.8252 16.84 13.8252C13.192 13.8252 11.288 15.6972 11.288 18.2252C11.288 19.2172 11.544 20.0812 12.2 20.9932L11.656 20.9932L11.4 20.1132L14.232 20.7372L14.232 21.5052L11.624 21.4892C11 20.4332 10.728 19.3452 10.728 18.0012ZM11 25.0306L11.48 25.0306L11.688 27.3186L11.688 27.7026L11.48 29.9746L11 29.9746L11 25.0306ZM11 26.6306C12.776 26.6626 14.584 26.6626 16.424 26.6626L17.256 26.6626C19.08 26.6626 20.904 26.6626 22.696 26.6306L22.696 28.3586C20.904 28.3106 19.112 28.3106 16.904 28.3106L16.552 28.3106C14.616 28.3106 12.792 28.3106 11 28.3586L11 26.6306ZM10.824 34.1506C10.824 32.9986 11.16 32.4866 12.024 32.3266L14.648 31.5746C15.976 31.2386 16.488 30.8226 16.488 29.4466L16.488 27.5106L17 27.5106L17 29.8146C17 31.6066 18.184 32.5826 19.672 32.5826C21.224 32.5826 22.152 31.6866 22.152 29.7986L22.152 27.5106L22.696 27.5106L22.696 30.0866C22.696 32.7106 21.608 34.1666 19.688 34.1666C18.12 34.1666 16.808 32.9826 16.632 30.3746L16.808 30.3746C16.664 32.3266 15.992 32.9026 14.504 33.2706L11.256 34.1826L11.624 33.3986L11.48 35.6226L11 35.6226C10.888 35.1906 10.824 34.7746 10.824 34.1506ZM22.2 25.0306L22.696 25.0306L22.696 27.5106L22.024 27.5106L22.024 27.3186L22.2 25.0306ZM10.728 43.6231C10.728 40.7591 12.936 38.3111 16.84 38.3111C20.712 38.3111 22.984 40.7591 22.984 43.6231C22.984 46.5031 20.744 48.9511 16.84 48.9511C12.968 48.9511 10.728 46.5031 10.728 43.6231ZM11.288 43.6231C11.288 45.9751 13.768 47.1751 16.84 47.1751C19.896 47.1751 22.392 45.9751 22.392 43.6231C22.392 41.2871 19.896 40.0871 16.84 40.0871C13.768 40.0871 11.288 41.2871 11.288 43.6231ZM11 52.2769L11.48 52.2769L11.688 54.5649L11.688 54.7569L11 54.7569L11 52.2769ZM11 53.8769C12.776 53.9089 14.584 53.9089 16.232 53.9089L17.256 53.9089C19.08 53.9089 20.92 53.9089 22.696 53.8769L22.696 55.6209C20.904 55.5729 19.096 55.5729 17.144 55.5729L16.184 55.5729C14.616 55.5729 12.792 55.5729 11 55.6209L11 53.8769ZM11 54.7569L11.56 54.7569L11.56 60.4049L11.128 59.6049L14.2 60.2449L14.2 60.9649L11 60.8849L11 54.7569ZM22.2 52.2769L22.696 52.2769L22.696 57.2849L22.2 57.2849L22.024 54.9649L22.024 54.5649L22.2 52.2769ZM11 64.1187L11.48 64.1187L11.688 66.4067L11.688 66.5987L11 66.5987L11 64.1187ZM11 65.7187C12.776 65.7507 14.584 65.7507 16.232 65.7507L17.256 65.7507C19.08 65.7507 20.92 65.7507 22.696 65.7187L22.696 67.4627C20.904 67.4147 19.096 67.4147 17.144 67.4147L16.184 67.4147C14.616 67.4147 12.792 67.4147 11 67.4627L11 65.7187ZM11 66.5987L11.56 66.5987L11.56 72.2467L11.128 71.4467L14.2 72.0867L14.2 72.8067L11 72.7267L11 66.5987ZM22.2 64.1187L22.696 64.1187L22.696 69.1267L22.2 69.1267L22.024 66.8067L22.024 66.4067L22.2 64.1187Z" fill="black"/>
<path d="M17.6445 152.353C17.8398 152.549 18.1563 152.549 18.3516 152.353L21.5336 149.171C21.7288 148.976 21.7288 148.66 21.5336 148.464C21.3383 148.269 21.0217 148.269 20.8265 148.464L17.998 151.293L15.1696 148.464C14.9744 148.269 14.6578 148.269 14.4625 148.464C14.2672 148.66 14.2672 148.976 14.4625 149.171L17.6445 152.353ZM17.498 88.9999L17.498 152L18.498 152L18.498 88.9999L17.498 88.9999Z" fill="black"/>
</svg>
